<svg width="574" height="360" viewBox="0 0 574 360" fill="none" xmlns="http://www.w3.org/2000/svg">
<path d="M148 99C148 71.938 126.062 50 99 50C71.938 50 50 71.938 50 99V360H0V99C0 44.3238 44.3238 0 99 0C153.676 0 198 44.3238 198 99V360H148V99Z" fill="#36A05B"/>
<path d="M376 201C376 173.938 354.062 152 327 152C299.938 152 278 173.938 278 201V360H228V201C228 146.324 272.324 102 327 102C381.676 102 426 146.324 426 201V360H376V201Z" fill="black"/>
<path d="M524 201C524 173.938 502.062 152 475 152C447.938 152 426 173.938 426 201V360H376V201C376 146.324 420.324 102 475 102C529.676 102 574 146.324 574 201V360H524V201Z" fill="black"/>
</svg>
