<svg width="1578" height="360" viewBox="0 0 1578 360" fill="none" xmlns="http://www.w3.org/2000/svg">
<path d="M148 99C148 71.938 126.062 50 99 50C71.938 50 50 71.938 50 99V360H0V99C0 44.3238 44.3238 0 99 0C153.676 0 198 44.3238 198 99V360H148V99Z" fill="#36A05B"/>
<path d="M680 231C680 187.37 644.63 152 601 152C557.37 152 522 187.37 522 231C522 274.63 557.37 310 601 310V360C529.755 360 472 302.245 472 231C472 159.755 529.755 102 601 102C672.245 102 730 159.755 730 231C730 302.245 672.245 360 601 360V310C644.63 310 680 274.63 680 231Z" fill="black"/>
<path d="M704.5 357.5V102.5" stroke="black" stroke-width="50"/>
<path d="M817.333 113.159C840.816 103.432 866.655 100.888 891.584 105.846C916.513 110.805 939.412 123.045 957.385 141.017L922.029 176.373C911.049 165.393 897.059 157.915 881.829 154.886C866.599 151.856 850.813 153.411 836.467 159.353C822.121 165.296 809.858 175.359 801.231 188.27C792.605 201.182 788 216.361 788 231.889H738C738 206.472 745.537 181.626 759.658 160.492C773.779 139.358 793.85 122.886 817.333 113.159Z" fill="black"/>
<path d="M788 103V358H738V103H788Z" fill="black"/>
<path d="M267.152 121.284C293.327 105.098 324.427 98.8022 354.836 103.534C385.245 108.267 412.961 123.714 432.98 147.089C452.998 170.464 464 200.225 464 231H414C414 212.153 407.262 193.927 395.003 179.612C382.744 165.298 365.77 155.838 347.147 152.94C328.525 150.042 309.48 153.897 293.45 163.81C277.421 173.722 265.462 189.039 259.735 206.994C254.008 224.95 254.89 244.362 262.22 261.725C269.55 279.088 282.846 293.258 299.707 301.678C316.568 310.098 335.884 312.213 354.168 307.64C372.452 303.067 388.499 292.108 399.411 276.741L440.177 305.692C422.358 330.783 396.155 348.679 366.3 356.146C336.444 363.613 304.902 360.16 277.369 346.411C249.836 332.662 228.125 309.522 216.156 281.17C204.187 252.818 202.748 221.121 212.1 191.801C221.451 162.481 240.978 137.471 267.152 121.284Z" fill="black"/>
<path d="M461.576 206C463.165 214.088 464 222.446 464 231C464 239.553 463.165 247.912 461.576 256H233V206H461.576Z" fill="black"/>
<path d="M1113.38 201C1113.38 173.938 1091.45 152 1064.38 152C1037.32 152 1015.38 173.938 1015.38 201V360H965.385V201C965.385 146.324 1009.71 102 1064.38 102C1119.06 102 1163.38 146.324 1163.38 201V360H1113.38V201Z" fill="#36A05B"/>
<path d="M1261.38 201C1261.38 173.938 1239.45 152 1212.38 152C1185.32 152 1163.38 173.938 1163.38 201V360H1113.38V201C1113.38 146.324 1157.71 102 1212.38 102C1267.06 102 1311.38 146.324 1311.38 201V360H1261.38V201Z" fill="#36A05B"/>
<path d="M1380.54 121.284C1406.71 105.098 1437.81 98.8022 1468.22 103.534C1498.63 108.267 1526.35 123.714 1546.36 147.089C1566.38 170.464 1577.38 200.225 1577.38 231H1527.38C1527.38 212.153 1520.65 193.927 1508.39 179.612C1496.13 165.298 1479.15 155.838 1460.53 152.94C1441.91 150.042 1422.86 153.897 1406.83 163.81C1390.81 173.722 1378.85 189.039 1373.12 206.994C1367.39 224.95 1368.27 244.362 1375.6 261.725C1382.93 279.088 1396.23 293.258 1413.09 301.678C1429.95 310.098 1449.27 312.213 1467.55 307.64C1485.84 303.067 1501.88 292.108 1512.8 276.741L1553.56 305.692C1535.74 330.783 1509.54 348.679 1479.68 356.146C1449.83 363.613 1418.29 360.16 1390.75 346.411C1363.22 332.662 1341.51 309.522 1329.54 281.17C1317.57 252.818 1316.13 221.121 1325.48 191.801C1334.84 162.481 1354.36 137.471 1380.54 121.284Z" fill="black"/>
<path d="M1574.96 206C1576.55 214.088 1577.38 222.446 1577.38 231C1577.38 239.553 1576.55 247.912 1574.96 256H1346.38V206H1574.96Z" fill="black"/>
</svg>
