<svg width="1819" height="360" viewBox="0 0 1819 360" fill="none" xmlns="http://www.w3.org/2000/svg">
<path d="M148 99C148 71.938 126.062 50 99 50C71.938 50 50 71.938 50 99V360H0V99C0 44.3238 44.3238 0 99 0C153.676 0 198 44.3238 198 99V360H148V99Z" fill="black"/>
<path d="M696 231C696 187.37 660.63 152 617 152C573.37 152 538 187.37 538 231C538 274.63 573.37 310 617 310V360C545.755 360 488 302.245 488 231C488 159.755 545.755 102 617 102C688.245 102 746 159.755 746 231C746 302.245 688.245 360 617 360V310C660.63 310 696 274.63 696 231Z" fill="black"/>
<path d="M720.5 357.5V102.5" stroke="black" stroke-width="50"/>
<path d="M841.333 113.159C864.816 103.432 890.655 100.888 915.584 105.846C940.513 110.805 963.412 123.045 981.385 141.017L946.029 176.373C935.049 165.393 921.059 157.915 905.829 154.886C890.599 151.856 874.813 153.411 860.467 159.353C846.121 165.296 833.858 175.359 825.231 188.27C816.605 201.182 812 216.361 812 231.889H762C762 206.472 769.537 181.626 783.658 160.492C797.779 139.358 817.85 122.886 841.333 113.159Z" fill="black"/>
<path d="M812 103V358H762V103H812Z" fill="black"/>
<path d="M275.152 121.284C301.327 105.098 332.427 98.8022 362.836 103.534C393.245 108.267 420.961 123.714 440.98 147.089C460.998 170.464 472 200.225 472 231H422C422 212.153 415.262 193.927 403.003 179.612C390.744 165.298 373.77 155.838 355.147 152.94C336.525 150.042 317.48 153.897 301.45 163.81C285.421 173.722 273.462 189.039 267.735 206.994C262.008 224.95 262.89 244.362 270.22 261.725C277.55 279.088 290.846 293.258 307.707 301.678C324.568 310.098 343.884 312.213 362.168 307.64C380.452 303.067 396.499 292.108 407.411 276.741L448.177 305.692C430.358 330.783 404.155 348.679 374.3 356.146C344.444 363.613 312.902 360.16 285.369 346.411C257.836 332.662 236.125 309.522 224.156 281.17C212.187 252.818 210.748 221.121 220.1 191.801C229.451 162.481 248.978 137.471 275.152 121.284Z" fill="black"/>
<path d="M469.576 206C471.165 214.088 472 222.446 472 231C472 239.553 471.165 247.912 469.576 256H241V206H469.576Z" fill="black"/>
<path d="M1347 201C1347 173.938 1325.06 152 1298 152C1270.94 152 1249 173.938 1249 201V360H1199V201C1199 146.324 1243.32 102 1298 102C1352.68 102 1397 146.324 1397 201V360H1347V201Z" fill="black"/>
<path d="M1495 201C1495 173.938 1473.06 152 1446 152C1418.94 152 1397 173.938 1397 201V360H1347V201C1347 146.324 1391.32 102 1446 102C1500.68 102 1545 146.324 1545 201V360H1495V201Z" fill="black"/>
<path d="M1622.15 121.284C1648.33 105.098 1679.43 98.8022 1709.84 103.534C1740.25 108.267 1767.96 123.714 1787.98 147.089C1808 170.464 1819 200.225 1819 231H1769C1769 212.153 1762.26 193.927 1750 179.612C1737.74 165.298 1720.77 155.838 1702.15 152.94C1683.52 150.042 1664.48 153.897 1648.45 163.81C1632.42 173.722 1620.46 189.039 1614.74 206.994C1609.01 224.95 1609.89 244.362 1617.22 261.725C1624.55 279.088 1637.85 293.258 1654.71 301.678C1671.57 310.098 1690.88 312.213 1709.17 307.64C1727.45 303.067 1743.5 292.108 1754.41 276.741L1795.18 305.692C1777.36 330.783 1751.16 348.679 1721.3 356.146C1691.44 363.613 1659.9 360.16 1632.37 346.411C1604.84 332.662 1583.13 309.522 1571.16 281.17C1559.19 252.818 1557.75 221.121 1567.1 191.801C1576.45 162.481 1595.98 137.471 1622.15 121.284Z" fill="black"/>
<path d="M1816.58 206C1818.16 214.088 1819 222.446 1819 231C1819 239.553 1818.16 247.912 1816.58 256H1588V206H1816.58Z" fill="black"/>
</svg>
