<svg width="1628" height="360" viewBox="0 0 1628 360" fill="none" xmlns="http://www.w3.org/2000/svg">
<path d="M148 99C148 71.938 126.062 50 99 50C71.938 50 50 71.938 50 99V360H0V99C0 44.3238 44.3238 0 99 0C153.676 0 198 44.3238 198 99V360H148V99Z" fill="black"/>
<path d="M1153.38 201C1153.38 173.938 1131.45 152 1104.38 152C1077.32 152 1055.38 173.938 1055.38 201V360H1005.38V201C1005.38 146.324 1049.71 102 1104.38 102C1159.06 102 1203.38 146.324 1203.38 201V360H1153.38V201Z" fill="black"/>
<path d="M1301.38 201C1301.38 173.938 1279.45 152 1252.38 152C1225.32 152 1203.38 173.938 1203.38 201V360H1153.38V201C1153.38 146.324 1197.71 102 1252.38 102C1307.06 102 1351.38 146.324 1351.38 201V360H1301.38V201Z" fill="black"/>
<path d="M700 231C700 187.37 664.63 152 621 152C577.37 152 542 187.37 542 231C542 274.63 577.37 310 621 310V360C549.755 360 492 302.245 492 231C492 159.755 549.755 102 621 102C692.245 102 750 159.755 750 231C750 302.245 692.245 360 621 360V310C664.63 310 700 274.63 700 231Z" fill="black"/>
<path d="M724.5 357.5V102.5" stroke="black" stroke-width="50"/>
<path d="M847.333 113.158C870.816 103.432 896.655 100.887 921.584 105.846C946.513 110.805 969.412 123.044 987.385 141.017L952.029 176.372C941.049 165.392 927.059 157.914 911.829 154.885C896.599 151.856 880.813 153.41 866.467 159.353C852.121 165.295 839.858 175.359 831.231 188.27C822.605 201.181 818 216.361 818 231.889H768C768 206.472 775.537 181.625 789.658 160.492C803.779 139.358 823.85 122.885 847.333 113.158Z" fill="black"/>
<path d="M818 103V358H768V103H818Z" fill="black"/>
<path d="M277.152 121.284C303.327 105.098 334.427 98.8022 364.836 103.534C395.245 108.267 422.961 123.714 442.98 147.089C462.998 170.464 474 200.225 474 231H424C424 212.153 417.262 193.927 405.003 179.612C392.744 165.298 375.77 155.838 357.147 152.94C338.525 150.042 319.48 153.897 303.45 163.81C287.421 173.722 275.462 189.039 269.735 206.994C264.008 224.95 264.89 244.362 272.22 261.725C279.55 279.088 292.846 293.258 309.707 301.678C326.568 310.098 345.884 312.213 364.168 307.64C382.452 303.067 398.499 292.108 409.411 276.741L450.177 305.692C432.358 330.783 406.155 348.679 376.3 356.146C346.444 363.613 314.902 360.16 287.369 346.411C259.836 332.662 238.125 309.522 226.156 281.17C214.187 252.818 212.748 221.121 222.1 191.801C231.451 162.481 250.978 137.471 277.152 121.284Z" fill="black"/>
<path d="M471.576 206C473.165 214.088 474 222.446 474 231C474 239.553 473.165 247.912 471.576 256H243V206H471.576Z" fill="black"/>
<path d="M1430.54 121.284C1456.71 105.098 1487.81 98.8022 1518.22 103.534C1548.63 108.267 1576.35 123.714 1596.36 147.089C1616.38 170.464 1627.38 200.225 1627.38 231H1577.38C1577.38 212.153 1570.65 193.927 1558.39 179.612C1546.13 165.298 1529.15 155.838 1510.53 152.94C1491.91 150.042 1472.86 153.897 1456.83 163.81C1440.81 173.722 1428.85 189.039 1423.12 206.994C1417.39 224.95 1418.27 244.362 1425.6 261.725C1432.93 279.088 1446.23 293.258 1463.09 301.678C1479.95 310.098 1499.27 312.213 1517.55 307.64C1535.84 303.067 1551.88 292.108 1562.8 276.741L1603.56 305.692C1585.74 330.783 1559.54 348.679 1529.68 356.146C1499.83 363.613 1468.29 360.16 1440.75 346.411C1413.22 332.662 1391.51 309.522 1379.54 281.17C1367.57 252.818 1366.13 221.121 1375.48 191.801C1384.84 162.481 1404.36 137.471 1430.54 121.284Z" fill="black"/>
<path d="M1624.96 206C1626.55 214.088 1627.38 222.446 1627.38 231C1627.38 239.553 1626.55 247.912 1624.96 256H1396.38V206H1624.96Z" fill="black"/>
</svg>
