<svg width="25" height="25" viewBox="0 0 25 25" fill="none" xmlns="http://www.w3.org/2000/svg">
<path fill-rule="evenodd" clip-rule="evenodd" d="M5 4.48193C5 3.8852 5.23705 3.3129 5.65901 2.89094C6.08097 2.46899 6.65326 2.23193 7.25 2.23193H17.75C18.0455 2.23193 18.3381 2.29013 18.611 2.4032C18.884 2.51628 19.1321 2.68201 19.341 2.89094C19.5499 3.09988 19.7157 3.34791 19.8287 3.6209C19.9418 3.89388 20 4.18646 20 4.48193V21.4819C20.0002 21.6178 19.9635 21.7511 19.8938 21.8677C19.8241 21.9843 19.724 22.0797 19.6043 22.1439C19.4846 22.2081 19.3497 22.2385 19.214 22.232C19.0784 22.2255 18.947 22.1823 18.834 22.1069L12.916 18.1609C12.7928 18.0788 12.6481 18.035 12.5 18.035C12.3519 18.035 12.2072 18.0788 12.084 18.1609L6.166 22.1059C6.05312 22.1812 5.92195 22.2244 5.78645 22.231C5.65096 22.2376 5.51621 22.2073 5.39656 22.1434C5.27691 22.0794 5.17684 21.9843 5.107 21.868C5.03717 21.7517 5.00019 21.6186 5 21.4829V4.48193ZM7.25 3.73193C7.05109 3.73193 6.86032 3.81095 6.71967 3.9516C6.57902 4.09226 6.5 4.28302 6.5 4.48193V20.0809L11.252 16.9129C11.6216 16.6666 12.0558 16.5351 12.5 16.5351C12.9442 16.5351 13.3784 16.6666 13.748 16.9129L18.5 20.0809V4.48193C18.5 4.28302 18.421 4.09226 18.2803 3.9516C18.1397 3.81095 17.9489 3.73193 17.75 3.73193H7.25Z" fill="black"/>
</svg>
