<svg width="24" height="24" viewBox="0 0 24 24" fill="none" xmlns="http://www.w3.org/2000/svg">
<path fill-rule="evenodd" clip-rule="evenodd" d="M1.56641 4C1.56641 3.80109 1.64542 3.61032 1.78608 3.46967C1.92673 3.32902 2.11749 3.25 2.31641 3.25H3.49741C4.0399 3.25003 4.56411 3.44606 4.97352 3.80199C5.38292 4.15792 5.64994 4.64978 5.72541 5.187L5.78641 5.622H19.7514C20.1248 5.62201 20.4924 5.71495 20.8209 5.89244C21.1494 6.06994 21.4286 6.32641 21.6333 6.63872C21.8379 6.95104 21.9617 7.30939 21.9933 7.68146C22.0249 8.05353 21.9634 8.42762 21.8144 8.77L19.1464 14.898C18.9715 15.2998 18.6832 15.6417 18.3167 15.8819C17.9502 16.1221 17.5216 16.25 17.0834 16.25H7.72241C7.17991 16.25 6.6557 16.0539 6.2463 15.698C5.83689 15.3421 5.56987 14.8502 5.49441 14.313L4.24041 5.396C4.21532 5.21681 4.12629 5.05273 3.98975 4.93401C3.8532 4.81529 3.67834 4.74994 3.49741 4.75H2.31741C2.11849 4.75 1.92773 4.67098 1.78708 4.53033C1.64642 4.38968 1.56741 4.19891 1.56741 4M5.99841 7.122L6.98041 14.104C7.0055 14.2832 7.09452 14.4473 7.23106 14.566C7.36761 14.6847 7.54247 14.7501 7.72341 14.75H17.0844C17.2304 14.7501 17.3733 14.7076 17.4956 14.6277C17.6178 14.5477 17.714 14.4338 17.7724 14.3L20.4394 8.17C20.4888 8.05599 20.509 7.9315 20.4984 7.80771C20.4877 7.68393 20.4465 7.56473 20.3784 7.46082C20.3103 7.35691 20.2174 7.27156 20.1082 7.21242C19.9989 7.15328 19.8766 7.12221 19.7524 7.122H5.99841Z" fill="black"/>
<path d="M6.03418 19.5C6.03418 19.0359 6.21855 18.5908 6.54674 18.2626C6.87493 17.9344 7.32005 17.75 7.78418 17.75C8.24831 17.75 8.69343 17.9344 9.02162 18.2626C9.34981 18.5908 9.53418 19.0359 9.53418 19.5C9.53418 19.9641 9.34981 20.4092 9.02162 20.7374C8.69343 21.0656 8.24831 21.25 7.78418 21.25C7.32005 21.25 6.87493 21.0656 6.54674 20.7374C6.21855 20.4092 6.03418 19.9641 6.03418 19.5ZM16.3202 17.75C15.8561 17.75 15.4109 17.9344 15.0827 18.2626C14.7546 18.5908 14.5702 19.0359 14.5702 19.5C14.5702 19.9641 14.7546 20.4092 15.0827 20.7374C15.4109 21.0656 15.8561 21.25 16.3202 21.25C16.7843 21.25 17.2294 21.0656 17.5576 20.7374C17.8858 20.4092 18.0702 19.9641 18.0702 19.5C18.0702 19.0359 17.8858 18.5908 17.5576 18.2626C17.2294 17.9344 16.7843 17.75 16.3202 17.75Z" fill="black"/>
</svg>
