<svg width="24" height="24" viewBox="0 0 24 24" fill="none" xmlns="http://www.w3.org/2000/svg">
<path d="M9.21973 10.4692C9.55125 10.4692 9.86919 10.3375 10.1036 10.1031C10.338 9.8687 10.4697 9.55076 10.4697 9.21924C10.4697 8.88772 10.338 8.56978 10.1036 8.33535C9.86919 8.10093 9.55125 7.96924 9.21973 7.96924C8.88821 7.96924 8.57026 8.10093 8.33584 8.33535C8.10142 8.56978 7.96973 8.88772 7.96973 9.21924C7.96973 9.55076 8.10142 9.8687 8.33584 10.1031C8.57026 10.3375 8.88821 10.4692 9.21973 10.4692ZM8.20173 14.7382C8.06925 14.8804 7.99712 15.0685 8.00055 15.2628C8.00398 15.4571 8.08269 15.6424 8.2201 15.7799C8.35752 15.9173 8.5429 15.996 8.7372 15.9994C8.93151 16.0028 9.11955 15.9307 9.26173 15.7982L15.7997 9.26224C15.9322 9.12006 16.0043 8.93202 16.0009 8.73772C15.9975 8.54341 15.9188 8.35803 15.7813 8.22062C15.6439 8.0832 15.4586 8.00449 15.2642 8.00106C15.0699 7.99764 14.8819 8.06976 14.7397 8.20224L8.20173 14.7382ZM16.0317 14.7812C16.0317 15.1128 15.9 15.4307 15.6656 15.6651C15.4312 15.8995 15.1132 16.0312 14.7817 16.0312C14.4502 16.0312 14.1323 15.8995 13.8978 15.6651C13.6634 15.4307 13.5317 15.1128 13.5317 14.7812C13.5317 14.4497 13.6634 14.1318 13.8978 13.8974C14.1323 13.6629 14.4502 13.5312 14.7817 13.5312C15.1132 13.5312 15.4312 13.6629 15.6656 13.8974C15.9 14.1318 16.0317 14.4497 16.0317 14.7812Z" fill="black"/>
<path fill-rule="evenodd" clip-rule="evenodd" d="M13.4774 2.46987C13.0578 2.06388 12.4967 1.83691 11.9129 1.83691C11.329 1.83691 10.768 2.06388 10.3484 2.46987L9.44638 3.34287C9.36433 3.42207 9.26531 3.48152 9.15683 3.51669C9.04835 3.55187 8.93329 3.56185 8.82038 3.54587L7.57738 3.36987C6.99921 3.2882 6.41194 3.4345 5.93964 3.77785C5.46735 4.1212 5.14704 4.6347 5.04638 5.20987L4.82938 6.44587C4.80957 6.5584 4.76432 6.66491 4.69708 6.75729C4.62984 6.84966 4.54238 6.92545 4.44138 6.97887L3.33338 7.56687C2.81754 7.84048 2.42827 8.30391 2.24783 8.85924C2.06738 9.41457 2.10989 10.0183 2.36638 10.5429L2.91738 11.6709C2.96739 11.7733 2.99339 11.8858 2.99339 11.9999C2.99339 12.1139 2.96739 12.2264 2.91738 12.3289L2.36638 13.4569C2.10989 13.9814 2.06738 14.5852 2.24783 15.1405C2.42827 15.6958 2.81754 16.1593 3.33338 16.4329L4.44138 17.0209C4.54238 17.0743 4.62984 17.1501 4.69708 17.2424C4.76432 17.3348 4.80957 17.4413 4.82938 17.5539L5.04638 18.7899C5.14704 19.3648 5.46721 19.8782 5.93928 20.2215C6.41135 20.5648 6.99836 20.7113 7.57638 20.6299L8.82038 20.4539C8.93329 20.4379 9.04835 20.4479 9.15683 20.483C9.26531 20.5182 9.36433 20.5777 9.44638 20.6569L10.3484 21.5299C10.768 21.9362 11.3293 22.1633 11.9134 22.1633C12.4975 22.1633 13.0587 21.9362 13.4784 21.5299L14.3794 20.6569C14.4615 20.5775 14.5607 20.518 14.6694 20.4828C14.778 20.4476 14.8933 20.4377 15.0064 20.4539L16.2494 20.6289C16.8274 20.7106 17.4145 20.5644 17.8868 20.2213C18.3591 19.8781 18.6795 19.3648 18.7804 18.7899L18.9974 17.5539C19.0171 17.4414 19.0622 17.335 19.1292 17.2426C19.1963 17.1502 19.2836 17.0744 19.3844 17.0209L20.4944 16.4329C21.01 16.1591 21.3991 15.6956 21.5793 15.1403C21.7596 14.5849 21.7169 13.9813 21.4604 13.4569L20.9094 12.3289C20.8592 12.2263 20.8331 12.1136 20.8331 11.9994C20.8331 11.8852 20.8592 11.7725 20.9094 11.6699L21.4594 10.5429C21.7159 10.0184 21.7586 9.41479 21.5783 8.85947C21.3981 8.30416 21.009 7.84065 20.4934 7.56687L19.3844 6.97887C19.2836 6.92533 19.1963 6.84949 19.1292 6.75713C19.0622 6.66476 19.0171 6.5583 18.9974 6.44587L18.7804 5.20887C18.6795 4.63408 18.3592 4.12099 17.8872 3.77787C17.4151 3.43475 16.8282 3.28846 16.2504 3.36987L15.0074 3.54587C14.8943 3.56201 14.779 3.55211 14.6704 3.51693C14.5617 3.48175 14.4625 3.42221 14.3804 3.34287L13.4774 2.46987ZM11.3914 3.54787C11.5312 3.41254 11.7183 3.33688 11.9129 3.33688C12.1075 3.33688 12.2945 3.41254 12.4344 3.54787L13.3364 4.42087C13.5826 4.65894 13.88 4.83764 14.2058 4.94335C14.5316 5.04906 14.8772 5.079 15.2164 5.03087L16.4594 4.85587C16.6521 4.82854 16.8479 4.87722 17.0054 4.99161C17.1629 5.106 17.2697 5.27714 17.3034 5.46887L17.5204 6.70487C17.5795 7.04217 17.7148 7.36154 17.9159 7.63864C18.1171 7.91574 18.3789 8.14326 18.6814 8.30387L19.7904 8.89187C20.1474 9.08187 20.2904 9.52087 20.1124 9.88387L19.5614 11.0119C19.411 11.3195 19.3328 11.6574 19.3328 11.9999C19.3328 12.3423 19.411 12.6802 19.5614 12.9879L20.1124 14.1159C20.1979 14.2907 20.2121 14.4919 20.152 14.677C20.0919 14.8621 19.9623 15.0166 19.7904 15.1079L18.6814 15.6959C18.3789 15.8565 18.1171 16.084 17.9159 16.3611C17.7148 16.6382 17.5795 16.9576 17.5204 17.2949L17.3034 18.5309C17.2697 18.7226 17.1629 18.8937 17.0054 19.0081C16.8479 19.1225 16.6521 19.1712 16.4594 19.1439L15.2164 18.9679C14.8772 18.9199 14.5315 18.95 14.2057 19.0558C13.8799 19.1617 13.5825 19.3406 13.3364 19.5789L12.4344 20.4519C12.2945 20.5872 12.1075 20.6629 11.9129 20.6629C11.7183 20.6629 11.5312 20.5872 11.3914 20.4519L10.4894 19.5789C10.2431 19.3408 9.94574 19.1621 9.61994 19.0564C9.29414 18.9507 8.9485 18.9207 8.60938 18.9689L7.36738 19.1439C7.17465 19.1712 6.97885 19.1225 6.82135 19.0081C6.66386 18.8937 6.557 18.7226 6.52338 18.5309L6.30638 17.2949C6.24719 16.9575 6.11174 16.638 5.91037 16.3609C5.70899 16.0838 5.447 15.8564 5.14438 15.6959L4.03638 15.1079C3.86431 15.0168 3.73441 14.8623 3.67414 14.6772C3.61386 14.4921 3.62793 14.2908 3.71338 14.1159L4.26538 12.9879C4.41574 12.6802 4.4939 12.3423 4.4939 11.9999C4.4939 11.6574 4.41574 11.3195 4.26538 11.0119L3.71338 9.88387C3.62793 9.70893 3.61386 9.50763 3.67414 9.32251C3.73441 9.13739 3.86431 8.98296 4.03638 8.89187L5.14438 8.30387C5.447 8.14338 5.70899 7.91591 5.91037 7.6388C6.11174 7.36169 6.24719 7.04226 6.30638 6.70487L6.52338 5.46887C6.557 5.27714 6.66386 5.106 6.82135 4.99161C6.97885 4.87722 7.17465 4.82854 7.36738 4.85587L8.61038 5.03087C8.9495 5.079 9.29514 5.04906 9.62094 4.94335C9.94674 4.83764 10.2441 4.65894 10.4904 4.42087L11.3914 3.54787Z" fill="black"/>
</svg>
