<svg width="25" height="25" viewBox="0 0 25 25" fill="none" xmlns="http://www.w3.org/2000/svg">
<path fill-rule="evenodd" clip-rule="evenodd" d="M12.5039 6.47461C11.4868 6.47461 10.5114 6.87865 9.79219 7.59786C9.07299 8.31706 8.66895 9.2925 8.66895 10.3096C8.66895 11.3267 9.07299 12.3022 9.79219 13.0214C10.5114 13.7406 11.4868 14.1446 12.5039 14.1446C13.5211 14.1446 14.4965 13.7406 15.2157 13.0214C15.9349 12.3022 16.3389 11.3267 16.3389 10.3096C16.3389 9.2925 15.9349 8.31706 15.2157 7.59786C14.4965 6.87865 13.5211 6.47461 12.5039 6.47461ZM10.1689 10.3096C10.1689 9.69033 10.415 9.09641 10.8529 8.65852C11.2907 8.22062 11.8847 7.97461 12.5039 7.97461C13.1232 7.97461 13.7171 8.22062 14.155 8.65852C14.5929 9.09641 14.8389 9.69033 14.8389 10.3096C14.8389 10.9289 14.5929 11.5228 14.155 11.9607C13.7171 12.3986 13.1232 12.6446 12.5039 12.6446C11.8847 12.6446 11.2907 12.3986 10.8529 11.9607C10.415 11.5228 10.1689 10.9289 10.1689 10.3096Z" fill="black"/>
<path fill-rule="evenodd" clip-rule="evenodd" d="M12.5033 2.83984C11.5219 2.83958 10.5502 3.03267 9.64353 3.40808C8.73687 3.78349 7.91305 4.33386 7.21916 5.02776C6.52527 5.72165 5.9749 6.54546 5.59949 7.45212C5.22408 8.35879 5.03099 9.33053 5.03125 10.3118C5.03125 13.1158 6.10325 15.6688 7.37625 17.7178C8.65125 19.7708 10.1582 21.3658 11.1033 22.2688C11.4833 22.6378 11.9924 22.8438 12.5221 22.843C13.0517 22.8423 13.5602 22.6348 13.9392 22.2648C14.8792 21.3608 16.3783 19.7648 17.6453 17.7138C18.9113 15.6648 19.9753 13.1138 19.9753 10.3118C19.9755 9.33053 19.7824 8.35879 19.407 7.45212C19.0316 6.54546 18.4812 5.72165 17.7873 5.02776C17.0934 4.33386 16.2696 3.78349 15.363 3.40808C14.4563 3.03267 13.4846 2.83958 12.5033 2.83984ZM6.53125 10.3118C6.53125 8.72797 7.16044 7.20897 8.28041 6.089C9.40038 4.96904 10.9194 4.33984 12.5033 4.33984C14.0871 4.33984 15.6061 4.96904 16.7261 6.089C17.8461 7.20897 18.4753 8.72797 18.4753 10.3118C18.4753 12.7368 17.5502 15.0138 16.3692 16.9248C15.1902 18.8338 13.7863 20.3308 12.8993 21.1848C12.8496 21.2352 12.7904 21.2751 12.7252 21.3024C12.6599 21.3296 12.59 21.3437 12.5193 21.3437C12.4486 21.3437 12.3786 21.3296 12.3133 21.3024C12.2481 21.2751 12.1889 21.2352 12.1393 21.1848C11.2493 20.3328 9.83625 18.8348 8.64925 16.9268C7.46225 15.0138 6.53125 12.7368 6.53125 10.3118Z" fill="black"/>
</svg>
