<svg width="25" height="24" viewBox="0 0 25 24" fill="none" xmlns="http://www.w3.org/2000/svg">
<path d="M11.4131 6.03086C11.4131 5.91267 11.4364 5.79564 11.4816 5.68644C11.5268 5.57725 11.5931 5.47804 11.6767 5.39446C11.7603 5.31089 11.8595 5.2446 11.9687 5.19937C12.0779 5.15414 12.1949 5.13086 12.3131 5.13086H12.3231C12.5618 5.13086 12.7907 5.22568 12.9595 5.39446C13.1283 5.56325 13.2231 5.79216 13.2231 6.03086C13.2231 6.26955 13.1283 6.49847 12.9595 6.66726C12.7907 6.83604 12.5618 6.93086 12.3231 6.93086H12.3131C12.1949 6.93086 12.0779 6.90758 11.9687 6.86235C11.8595 6.81712 11.7603 6.75083 11.6767 6.66726C11.5931 6.58368 11.5268 6.48447 11.4816 6.37527C11.4364 6.26608 11.4131 6.14905 11.4131 6.03086Z" fill="black"/>
<path fill-rule="evenodd" clip-rule="evenodd" d="M12.3212 11.998L11.8512 12.582L11.8482 12.58L11.8453 12.578L11.8352 12.57L11.8022 12.542L11.6853 12.442C11.0969 11.9172 10.5595 11.338 10.0802 10.712C9.21625 9.57999 8.28125 7.92799 8.28125 6.03199C8.28125 4.96277 8.706 3.93734 9.46205 3.18129C10.2181 2.42523 11.2435 2.00049 12.3127 2.00049C13.382 2.00049 14.4074 2.42523 15.1635 3.18129C15.9195 3.93734 16.3442 4.96277 16.3442 6.03199C16.3442 7.92599 15.4143 9.57799 14.5553 10.711C14.0788 11.3362 13.5444 11.9151 12.9592 12.44L12.8422 12.54L12.8092 12.569L12.7992 12.577L12.7962 12.579L12.7952 12.58L12.3212 11.998ZM12.3132 3.49999C11.9807 3.49959 11.6513 3.56478 11.3439 3.69181C11.0365 3.81884 10.7572 4.00522 10.522 4.2403C10.2867 4.47538 10.1001 4.75453 9.97283 5.0618C9.84556 5.36906 9.78012 5.69841 9.78025 6.03099C9.78025 7.44799 10.4903 8.77799 11.2723 9.80199C11.6513 10.299 12.0323 10.703 12.3193 10.984C12.6053 10.704 12.9833 10.3 13.3593 9.80399C14.1363 8.77999 14.8433 7.44899 14.8433 6.03099C14.8434 5.69866 14.778 5.36956 14.651 5.06249C14.5239 4.75542 14.3375 4.4764 14.1026 4.24136C13.8676 4.00632 13.5887 3.81988 13.2817 3.69267C12.9747 3.56546 12.6456 3.49999 12.3132 3.49999Z" fill="black"/>
<path d="M12.3206 11.998L12.7936 12.581C12.6601 12.6892 12.4934 12.7482 12.3216 12.7482C12.1498 12.7482 11.9831 12.6892 11.8496 12.581L12.3206 11.998Z" fill="black"/>
<path d="M8.88652 11.6209C9.25652 12.1049 9.62352 12.5169 9.93852 12.8439V18.5479L14.6925 17.4069V12.8499C15.2443 12.2757 15.7462 11.6555 16.1925 10.9959V17.4119L19.8825 18.3159C19.993 18.3431 20.1082 18.3447 20.2195 18.3208C20.3307 18.2968 20.435 18.2479 20.5245 18.1776C20.614 18.1074 20.6864 18.0177 20.7361 17.9154C20.7858 17.813 20.8116 17.7007 20.8115 17.5869V7.17693C20.8118 7.00874 20.7556 6.84532 20.6519 6.71292C20.5481 6.58053 20.4029 6.48685 20.2395 6.44693L17.8405 5.85993C17.8246 5.30969 17.7262 4.76495 17.5485 4.24393L20.5965 4.99093C21.0857 5.11068 21.5205 5.39106 21.8314 5.7872C22.1424 6.18334 22.3114 6.67234 22.3115 7.17593V17.5879C22.3115 17.9289 22.2339 18.2654 22.0847 18.572C21.9355 18.8785 21.7186 19.1472 21.4504 19.3577C21.1821 19.5681 20.8695 19.7149 20.5363 19.7868C20.203 19.8587 19.8577 19.854 19.5265 19.7729L15.6115 18.8139C15.4952 18.7857 15.3738 18.7857 15.2575 18.8139L9.71552 20.1439C9.36699 20.2274 9.00358 20.2263 8.65552 20.1409L4.02652 19.0079C3.53721 18.8881 3.10224 18.6076 2.7913 18.2113C2.48035 17.8149 2.3114 17.3257 2.31152 16.8219V6.41093C2.31141 6.06978 2.38887 5.73308 2.53804 5.42627C2.68722 5.11947 2.90421 4.8506 3.1726 4.64001C3.441 4.42942 3.75376 4.28262 4.08724 4.21071C4.42073 4.1388 4.7662 4.14366 5.09752 4.22493L6.94752 4.67793C6.82316 5.16922 6.7673 5.67535 6.78152 6.18193L4.74052 5.68193C4.6301 5.65495 4.51499 5.65343 4.40389 5.67747C4.29279 5.70152 4.1886 5.7505 4.09921 5.82072C4.00982 5.89094 3.93757 5.98056 3.8879 6.08281C3.83823 6.18506 3.81246 6.29726 3.81252 6.41093V16.8219C3.81237 16.9898 3.86856 17.1529 3.97208 17.2851C4.07561 17.4172 4.22049 17.5109 4.38352 17.5509L8.43852 18.5439V10.9959C8.59052 11.2213 8.73986 11.4296 8.88652 11.6209Z" fill="black"/>
</svg>
