<svg width="24" height="24" viewBox="0 0 24 24" fill="none" xmlns="http://www.w3.org/2000/svg">
<mask id="path-1-inside-1_54_8" fill="white">
<path d="M9.46191 3C13.0304 3.0002 15.9229 5.89343 15.9229 9.46191C15.9228 9.58584 15.918 9.70886 15.9111 9.83105C16.588 10.592 17 11.5939 17 12.6924C17 15.0714 15.0714 17 12.6924 17C11.5939 17 10.592 16.588 9.83105 15.9111C9.70886 15.918 9.58584 15.9228 9.46191 15.9229C5.89343 15.9229 3.0002 13.0304 3 9.46191C3 5.89331 5.89331 3 9.46191 3Z"/>
</mask>
<path d="M9.46191 3L9.462 1.5H9.46191V3ZM15.9229 9.46191L17.4229 9.462V9.46191H15.9229ZM15.9111 9.83105L14.4135 9.7466C14.3912 10.1427 14.5267 10.5316 14.7904 10.828L15.9111 9.83105ZM17 12.6924L18.5 12.6924V12.6924H17ZM12.6924 17V18.5H12.6924L12.6924 17ZM9.83105 15.9111L10.828 14.7904C10.5316 14.5267 10.1427 14.3912 9.7466 14.4135L9.83105 15.9111ZM9.46191 15.9229V17.4229H9.462L9.46191 15.9229ZM3 9.46191H1.5V9.462L3 9.46191ZM9.46191 3L9.46183 4.5C12.2017 4.50016 14.4229 6.72165 14.4229 9.46191H15.9229H17.4229C17.4229 5.06521 13.859 1.50025 9.462 1.5L9.46191 3ZM15.9229 9.46191L14.4229 9.46183C14.4228 9.54785 14.4195 9.64068 14.4135 9.7466L15.9111 9.83105L17.4088 9.91551C17.4166 9.77703 17.4228 9.62383 17.4229 9.462L15.9229 9.46191ZM15.9111 9.83105L14.7904 10.828C15.2331 11.3257 15.5 11.9764 15.5 12.6924H17H18.5C18.5 11.2113 17.9429 9.85828 17.0319 8.83409L15.9111 9.83105ZM17 12.6924L15.5 12.6924C15.5 14.243 14.243 15.5 12.6924 15.5L12.6924 17L12.6924 18.5C15.8998 18.4999 18.4999 15.8998 18.5 12.6924L17 12.6924ZM12.6924 17V15.5C11.9764 15.5 11.3257 15.2331 10.828 14.7904L9.83105 15.9111L8.83409 17.0319C9.85828 17.9429 11.2113 18.5 12.6924 18.5V17ZM9.83105 15.9111L9.7466 14.4135C9.64068 14.4195 9.54785 14.4228 9.46183 14.4229L9.46191 15.9229L9.462 17.4229C9.62383 17.4228 9.77703 17.4166 9.91551 17.4088L9.83105 15.9111ZM9.46191 15.9229V14.4229C6.72165 14.4229 4.50016 12.2017 4.5 9.46183L3 9.46191L1.5 9.462C1.50025 13.859 5.06521 17.4229 9.46191 17.4229V15.9229ZM3 9.46191H4.5C4.5 6.72173 6.72173 4.5 9.46191 4.5V3V1.5C5.06488 1.5 1.5 5.06488 1.5 9.46191H3Z" fill="black" mask="url(#path-1-inside-1_54_8)"/>
<mask id="path-3-outside-2_54_8" maskUnits="userSpaceOnUse" x="13" y="13" width="9" height="9" fill="black">
<rect fill="white" x="13" y="13" width="9" height="9"/>
<path d="M18.3467 16.9766C18.725 16.5984 19.3385 16.5983 19.7168 16.9766C20.0949 17.3549 20.095 17.9684 19.7168 18.3467C19.3648 18.6987 18.809 18.723 18.4287 18.4199L18.4199 18.4297C18.7225 18.81 18.6985 19.365 18.3467 19.7168C17.9684 20.0949 17.3548 20.0949 16.9766 19.7168C16.6219 19.3621 16.5998 18.8004 16.9102 18.4199L16.9766 18.3467L15 16.3701L16.3701 15L18.3467 16.9766Z"/>
</mask>
<path d="M18.3467 16.9766L17.286 18.0372C17.8717 18.6229 18.8214 18.623 19.4072 18.0374L18.3467 16.9766ZM19.7168 16.9766L20.7777 15.9161L20.7775 15.9159L19.7168 16.9766ZM19.7168 18.3467L20.7775 19.4073L20.7776 19.4072L19.7168 18.3467ZM18.4287 18.4199L19.3635 17.2468C18.743 16.7523 17.8446 16.8267 17.3138 17.4165L18.4287 18.4199ZM18.4199 18.4297L17.305 17.4262C16.8148 17.9709 16.7899 18.7901 17.2461 19.3636L18.4199 18.4297ZM18.3467 19.7168L19.4071 20.7777L19.4073 20.7775L18.3467 19.7168ZM16.9766 19.7168L15.9159 20.7775L15.9161 20.7777L16.9766 19.7168ZM16.9102 18.4199L15.7989 17.4124C15.7814 17.4317 15.7643 17.4515 15.7478 17.4718L16.9102 18.4199ZM16.9766 18.3467L18.0878 19.3542C18.6251 18.7616 18.6029 17.8516 18.0372 17.286L16.9766 18.3467ZM15 16.3701L13.9393 15.3095C13.3536 15.8952 13.3536 16.845 13.9393 17.4308L15 16.3701ZM16.3701 15L17.4308 13.9393C16.845 13.3536 15.8952 13.3536 15.3095 13.9393L16.3701 15ZM18.3467 16.9766L19.4072 18.0374C19.1999 18.2446 18.8638 18.2449 18.6561 18.0372L19.7168 16.9766L20.7775 15.9159C19.8132 14.9517 18.2501 14.9521 17.2862 15.9157L18.3467 16.9766ZM19.7168 16.9766L18.6559 18.037C18.4486 17.8296 18.4485 17.4937 18.656 17.2862L19.7168 18.3467L20.7776 19.4072C21.7414 18.4431 21.7413 16.8801 20.7777 15.9161L19.7168 16.9766ZM19.7168 18.3467L18.6561 17.286C18.8503 17.0919 19.1541 17.08 19.3635 17.2468L18.4287 18.4199L17.4939 19.593C18.4639 20.366 19.8793 20.3055 20.7775 19.4073L19.7168 18.3467ZM18.4287 18.4199L17.3138 17.4165L17.305 17.4262L18.4199 18.4297L19.5349 19.4331L19.5437 19.4234L18.4287 18.4199ZM18.4199 18.4297L17.2461 19.3636C17.0804 19.1553 17.091 18.8511 17.286 18.6561L18.3467 19.7168L19.4073 20.7775C20.306 19.8788 20.3646 18.4647 19.5937 17.4958L18.4199 18.4297ZM18.3467 19.7168L17.2863 18.6559C17.4937 18.4486 17.8295 18.4485 18.037 18.6559L16.9766 19.7168L15.9161 20.7777C16.8802 21.7413 18.4431 21.7412 19.4071 20.7777L18.3467 19.7168ZM16.9766 19.7168L18.0372 18.6561C18.2325 18.8514 18.2436 19.1583 18.0725 19.3681L16.9102 18.4199L15.7478 17.4718C14.9559 18.4425 15.0112 19.8728 15.9159 20.7775L16.9766 19.7168ZM16.9102 18.4199L18.0214 19.4275L18.0878 19.3542L16.9766 18.3467L15.8653 17.3391L15.7989 17.4124L16.9102 18.4199ZM16.9766 18.3467L18.0372 17.286L16.0607 15.3095L15 16.3701L13.9393 17.4308L15.9159 19.4073L16.9766 18.3467ZM15 16.3701L16.0607 17.4308L17.4308 16.0607L16.3701 15L15.3095 13.9393L13.9393 15.3095L15 16.3701ZM16.3701 15L15.3095 16.0607L17.286 18.0372L18.3467 16.9766L19.4073 15.9159L17.4308 13.9393L16.3701 15Z" fill="black" mask="url(#path-3-outside-2_54_8)"/>
</svg>
