<svg width="24" height="24" viewBox="0 0 24 24" fill="none" xmlns="http://www.w3.org/2000/svg">
<path d="M12.0023 2.001C12.2012 2.001 12.3919 2.08002 12.5326 2.22067C12.6732 2.36132 12.7523 2.55209 12.7523 2.751V3.538C14.6023 3.72394 16.3174 4.59047 17.5646 5.96947C18.8119 7.34848 19.5024 9.14162 19.5023 11.001V14.115L20.1943 15.961C20.3217 16.3014 20.3648 16.6676 20.3199 17.0282C20.2749 17.3889 20.1433 17.7333 19.9362 18.032C19.7291 18.3307 19.4527 18.5748 19.1308 18.7433C18.8088 18.9119 18.4507 19 18.0873 19H15.0633C15.0633 19.8124 14.7406 20.5914 14.1661 21.1659C13.5917 21.7403 12.8126 22.063 12.0003 22.063C11.1879 22.063 10.4088 21.7403 9.8344 21.1659C9.25997 20.5914 8.93727 19.8124 8.93727 19H5.91726C5.5536 19.0002 5.19531 18.9123 4.87308 18.7437C4.55085 18.5751 4.27427 18.331 4.06705 18.0321C3.85982 17.7333 3.72812 17.3886 3.68323 17.0278C3.63833 16.6669 3.68158 16.3005 3.80927 15.96L4.50227 14.114V11C4.50212 9.14062 5.19266 7.34748 6.43992 5.96847C7.68717 4.58947 9.40221 3.72294 11.2523 3.537V2.75C11.2523 2.55109 11.3313 2.36032 11.4719 2.21967C11.6126 2.07902 11.8034 2.001 12.0023 2.001ZM10.4373 19C10.4476 19.4076 10.6167 19.795 10.9086 20.0796C11.2005 20.3642 11.5921 20.5235 11.9998 20.5235C12.4075 20.5235 12.799 20.3642 13.0909 20.0796C13.3828 19.795 13.552 19.4076 13.5623 19H10.4373ZM6.00226 11V14.116C6.00226 14.294 5.96927 14.472 5.90727 14.639L5.21427 16.487C5.17179 16.6004 5.15742 16.7225 5.17239 16.8427C5.18735 16.9629 5.2312 17.0776 5.30019 17.1772C5.36918 17.2767 5.46126 17.3581 5.56855 17.4143C5.67584 17.4705 5.79514 17.4999 5.91627 17.5H18.0873C18.2084 17.4999 18.3277 17.4705 18.435 17.4143C18.5423 17.3581 18.6343 17.2767 18.7033 17.1772C18.7723 17.0776 18.8162 16.9629 18.8311 16.8427C18.8461 16.7225 18.8317 16.6004 18.7893 16.487L18.0963 14.639C18.0341 14.4717 18.0022 14.2945 18.0023 14.116V11C18.0023 10.2121 17.8471 9.43185 17.5455 8.7039C17.244 7.97595 16.8021 7.31451 16.2449 6.75736C15.6878 6.20021 15.0263 5.75825 14.2984 5.45672C13.5704 5.15519 12.7902 5 12.0023 5C11.2143 5 10.4341 5.15519 9.70616 5.45672C8.97821 5.75825 8.31678 6.20021 7.75962 6.75736C7.20247 7.31451 6.76052 7.97595 6.45899 8.7039C6.15746 9.43185 6.00226 10.2121 6.00226 11Z" fill="black"/>
</svg>
