<svg width="24" height="24" viewBox="0 0 24 24" fill="none" xmlns="http://www.w3.org/2000/svg">
<rect width="24" height="24" fill="white"/>
<path d="M18.3096 7.75L18.248 8.55762L17.3896 19.7109C17.2794 21.1437 16.0844 22.25 14.6475 22.25H9.35254C7.91558 22.25 6.72058 21.1437 6.61035 19.7109L5.75195 8.55762L5.69043 7.75H18.3096Z" stroke="black" stroke-width="1.5"/>
<path d="M16.5 3.75C16.9142 3.75 17.25 3.41421 17.25 3C17.25 2.58579 16.9142 2.25 16.5 2.25V3V3.75ZM11.5 7L12.2022 7.26334L13.4589 3.91222L12.7567 3.64888L12.0544 3.38553L10.7978 6.73666L11.5 7ZM13.693 3V3.75H16.5V3V2.25H13.693V3ZM12.7567 3.64888L13.4589 3.91222C13.4955 3.81464 13.5888 3.75 13.693 3.75V3V2.25C12.9635 2.25 12.3106 2.7025 12.0544 3.38553L12.7567 3.64888Z" fill="black"/>
<path d="M4 7.5H19.5" stroke="black" stroke-width="1.5" stroke-linecap="round" stroke-linejoin="round"/>
</svg>
