<svg width="25" height="24" viewBox="0 0 25 24" fill="none" xmlns="http://www.w3.org/2000/svg">
<path fill-rule="evenodd" clip-rule="evenodd" d="M16.4341 6.35C16.4341 8.74 14.4941 10.69 12.0941 10.69L12.0841 10.68C9.69414 10.68 7.74414 8.73 7.74414 6.34C7.74414 3.95 9.70414 2 12.0941 2C14.4841 2 16.4341 3.96 16.4341 6.35ZM14.9341 6.34C14.9341 4.78 13.6641 3.5 12.0941 3.5C10.5341 3.5 9.25414 4.78 9.25414 6.34C9.25414 7.9 10.5341 9.18 12.0941 9.18C12.8465 9.17736 13.5674 8.87731 14.0994 8.34527C14.6314 7.81324 14.9315 7.0924 14.9341 6.34Z" fill="black"/>
<path d="M12.0245 12.19C14.6945 12.19 16.7845 12.94 18.2345 14.42V14.41C20.2805 16.496 20.2745 19.256 20.2745 19.434V19.439C20.2645 19.849 19.9345 20.179 19.5245 20.179H19.5145C19.316 20.175 19.127 20.0931 18.9885 19.9508C18.85 19.8086 18.7731 19.6175 18.7745 19.419C18.7745 19.369 18.7745 17.089 17.1545 15.449C15.9945 14.279 14.2645 13.679 12.0245 13.679C9.78447 13.679 8.05447 14.279 6.89447 15.449C5.27447 17.099 5.27447 19.399 5.27447 19.419C5.27447 19.829 4.94447 20.179 4.53447 20.179C4.17447 20.199 3.77447 19.859 3.77447 19.449V19.445C3.77347 19.277 3.76647 16.506 5.81447 14.419C7.26447 12.939 9.35447 12.19 12.0245 12.19Z" fill="black"/>
</svg>
