<svg width="24" height="24" viewBox="0 0 24 24" fill="none" xmlns="http://www.w3.org/2000/svg">
<g clip-path="url(#clip0_54_53)">
<rect width="24" height="24" fill="white"/>
<path d="M14.2508 9.87056C15.9642 11.5208 15.7138 14.3327 13.7356 15.6542L4.12603 22.0728C3.68146 22.3696 3.09602 22.3443 2.67861 22.0104C2.19349 21.6223 2.07466 20.9327 2.40244 20.405L8.49942 10.5889C9.75095 8.57385 12.5421 8.22516 14.2508 9.87056Z" stroke="black" stroke-width="1.5"/>
<path d="M14.3018 2.625C14.5922 2.26537 15.0854 2.26502 15.376 2.625C16.0022 3.40116 16.5875 4.42758 16.5879 5.49902C16.5879 5.50704 16.5886 5.51548 16.5889 5.52344C16.5854 6.65362 16.3291 7.63976 15.9521 8.31836C15.5586 9.02688 15.1345 9.25 14.8408 9.25C14.5467 9.24994 14.1224 9.02647 13.7285 8.31836C13.3486 7.63537 13.0898 6.64051 13.0898 5.5C13.0898 4.42738 13.6756 3.40097 14.3018 2.625Z" stroke="black" stroke-width="1.5" stroke-linejoin="round"/>
<path d="M21.7007 10.4586C22.021 10.8353 21.8855 11.3424 21.4194 11.5085C20.5237 11.8278 19.4234 12.0358 18.3965 11.7611C18.3881 11.7589 18.3792 11.7572 18.3708 11.7552C17.2316 11.4465 16.298 10.9467 15.7037 10.4198C15.068 9.8562 14.9889 9.43579 15.0413 9.23941C15.094 9.04263 15.3732 8.71719 16.2056 8.54644C16.989 8.38582 18.0574 8.41984 19.2082 8.72819C20.236 9.00369 21.0848 9.73437 21.7007 10.4586Z" stroke="black" stroke-width="1.5" stroke-linejoin="round"/>
</g>
<defs>
<clipPath id="clip0_54_53">
<rect width="24" height="24" fill="white"/>
</clipPath>
</defs>
</svg>
