<svg preserveAspectRatio="none" width="100%" height="100%" overflow="visible" style="display: block;" viewBox="0 0 24 24" fill="none" xmlns="http://www.w3.org/2000/svg">
<g id="cart">
<path id="Vector" fill-rule="evenodd" clip-rule="evenodd" d="M1.566 4C1.566 3.80109 1.64502 3.61032 1.78567 3.46967C1.92632 3.32902 2.11709 3.25 2.316 3.25H3.497C4.03949 3.25003 4.56371 3.44606 4.97311 3.80199C5.38251 4.15792 5.64953 4.64978 5.725 5.187L5.786 5.622H19.751C20.1244 5.62201 20.4919 5.71495 20.8205 5.89244C21.149 6.06994 21.4282 6.32641 21.6329 6.63872C21.8375 6.95104 21.9613 7.30939 21.9929 7.68146C22.0245 8.05353 21.963 8.42762 21.814 8.77L19.146 14.898C18.9711 15.2998 18.6827 15.6417 18.3163 15.8819C17.9498 16.1221 17.5212 16.25 17.083 16.25H7.722C7.17951 16.25 6.65529 16.0539 6.24589 15.698C5.83649 15.3421 5.56947 14.8502 5.494 14.313L4.24 5.396C4.21491 5.21681 4.12589 5.05273 3.98934 4.93401C3.8528 4.81529 3.67794 4.74994 3.497 4.75H2.317C2.11809 4.75 1.92732 4.67098 1.78667 4.53033C1.64602 4.38968 1.567 4.19891 1.567 4M5.998 7.122L6.98 14.104C7.00509 14.2832 7.09411 14.4473 7.23066 14.566C7.3672 14.6847 7.54206 14.7501 7.723 14.75H17.084C17.23 14.7501 17.3729 14.7076 17.4951 14.6277C17.6174 14.5477 17.7136 14.4338 17.772 14.3L20.439 8.17C20.4884 8.05599 20.5086 7.9315 20.498 7.80771C20.4873 7.68393 20.4461 7.56473 20.378 7.46082C20.3099 7.35691 20.217 7.27156 20.1077 7.21242C19.9985 7.15328 19.8762 7.12221 19.752 7.122H5.998Z" fill="var(--fill-0, black)"/>
<path id="Vector_2" d="M6.034 19.5C6.034 19.0359 6.21837 18.5908 6.54656 18.2626C6.87475 17.9344 7.31987 17.75 7.784 17.75C8.24813 17.75 8.69325 17.9344 9.02144 18.2626C9.34963 18.5908 9.534 19.0359 9.534 19.5C9.534 19.9641 9.34963 20.4092 9.02144 20.7374C8.69325 21.0656 8.24813 21.25 7.784 21.25C7.31987 21.25 6.87475 21.0656 6.54656 20.7374C6.21837 20.4092 6.034 19.9641 6.034 19.5ZM16.32 17.75C15.8559 17.75 15.4108 17.9344 15.0826 18.2626C14.7544 18.5908 14.57 19.0359 14.57 19.5C14.57 19.9641 14.7544 20.4092 15.0826 20.7374C15.4108 21.0656 15.8559 21.25 16.32 21.25C16.7841 21.25 17.2292 21.0656 17.5574 20.7374C17.8856 20.4092 18.07 19.9641 18.07 19.5C18.07 19.0359 17.8856 18.5908 17.5574 18.2626C17.2292 17.9344 16.7841 17.75 16.32 17.75Z" fill="var(--fill-0, black)"/>
</g>
</svg>
