<svg preserveAspectRatio="none" width="100%" height="100%" overflow="visible" style="display: block;" viewBox="0 0 24 24" fill="none" xmlns="http://www.w3.org/2000/svg">
<g id="Deals">
<path id="Vector" d="M9.22 10.469C9.55152 10.469 9.86946 10.3373 10.1039 10.1029C10.3383 9.86846 10.47 9.55052 10.47 9.219C10.47 8.88748 10.3383 8.56954 10.1039 8.33512C9.86946 8.1007 9.55152 7.969 9.22 7.969C8.88848 7.969 8.57054 8.1007 8.33612 8.33512C8.1017 8.56954 7.97 8.88748 7.97 9.219C7.97 9.55052 8.1017 9.86846 8.33612 10.1029C8.57054 10.3373 8.88848 10.469 9.22 10.469ZM8.202 14.738C8.06952 14.8802 7.9974 15.0682 8.00082 15.2625C8.00425 15.4568 8.08296 15.6422 8.22038 15.7796C8.35779 15.917 8.54318 15.9957 8.73748 15.9992C8.93178 16.0026 9.11983 15.9305 9.262 15.798L15.8 9.262C15.9325 9.11983 16.0046 8.93178 16.0012 8.73748C15.9977 8.54318 15.919 8.35779 15.7816 8.22038C15.6442 8.08296 15.4588 8.00425 15.2645 8.00082C15.0702 7.9974 14.8822 8.06952 14.74 8.202L8.202 14.738ZM16.032 14.781C16.032 15.1125 15.9003 15.4305 15.6659 15.6649C15.4315 15.8993 15.1135 16.031 14.782 16.031C14.4505 16.031 14.1325 15.8993 13.8981 15.6649C13.6637 15.4305 13.532 15.1125 13.532 14.781C13.532 14.4495 13.6637 14.1315 13.8981 13.8971C14.1325 13.6627 14.4505 13.531 14.782 13.531C15.1135 13.531 15.4315 13.6627 15.6659 13.8971C15.9003 14.1315 16.032 14.4495 16.032 14.781Z" fill="var(--fill-0, black)"/>
<path id="Vector_2" fill-rule="evenodd" clip-rule="evenodd" d="M13.477 2.47C13.0574 2.06401 12.4964 1.83705 11.9125 1.83705C11.3286 1.83705 10.7676 2.06401 10.348 2.47L9.446 3.343C9.36396 3.4222 9.26493 3.48165 9.15645 3.51683C9.04798 3.552 8.93291 3.56198 8.82 3.546L7.577 3.37C6.99883 3.28833 6.41156 3.43463 5.93927 3.77798C5.46698 4.12133 5.14666 4.63484 5.046 5.21L4.829 6.446C4.8092 6.55853 4.76395 6.66504 4.6967 6.75742C4.62946 6.84979 4.542 6.92558 4.441 6.979L3.333 7.567C2.81716 7.84061 2.4279 8.30404 2.24745 8.85938C2.06701 9.41471 2.10952 10.0184 2.366 10.543L2.917 11.671C2.96702 11.7735 2.99301 11.886 2.99301 12C2.99301 12.114 2.96702 12.2265 2.917 12.329L2.366 13.457C2.10952 13.9816 2.06701 14.5853 2.24745 15.1406C2.4279 15.696 2.81716 16.1594 3.333 16.433L4.441 17.021C4.542 17.0744 4.62946 17.1502 4.6967 17.2426C4.76395 17.335 4.8092 17.4415 4.829 17.554L5.046 18.79C5.14666 19.365 5.46683 19.8783 5.9389 20.2216C6.41097 20.565 6.99799 20.7114 7.576 20.63L8.82 20.454C8.93291 20.438 9.04798 20.448 9.15645 20.4832C9.26493 20.5183 9.36396 20.5778 9.446 20.657L10.348 21.53C10.7677 21.9363 11.3289 22.1634 11.913 22.1634C12.4971 22.1634 13.0583 21.9363 13.478 21.53L14.379 20.657C14.4612 20.5777 14.5603 20.5181 14.669 20.4829C14.7777 20.4478 14.8929 20.4379 15.006 20.454L16.249 20.629C16.827 20.7107 17.4142 20.5645 17.8864 20.2214C18.3587 19.8782 18.6791 19.365 18.78 18.79L18.997 17.554C19.0167 17.4416 19.0618 17.3351 19.1289 17.2427C19.1959 17.1504 19.2832 17.0745 19.384 17.021L20.494 16.433C21.0097 16.1592 21.3987 15.6957 21.579 15.1404C21.7592 14.5851 21.7166 13.9814 21.46 13.457L20.909 12.329C20.8588 12.2264 20.8327 12.1137 20.8327 11.9995C20.8327 11.8853 20.8588 11.7726 20.909 11.67L21.459 10.543C21.7156 10.0186 21.7582 9.41492 21.578 8.8596C21.3977 8.30429 21.0087 7.84078 20.493 7.567L19.384 6.979C19.2832 6.92546 19.1959 6.84962 19.1289 6.75726C19.0618 6.66489 19.0167 6.55843 18.997 6.446L18.78 5.209C18.6791 4.63422 18.3588 4.12112 17.8868 3.778C17.4148 3.43488 16.8279 3.28859 16.25 3.37L15.007 3.546C14.8939 3.56214 14.7787 3.55224 14.67 3.51706C14.5613 3.48188 14.4622 3.42234 14.38 3.343L13.477 2.47ZM11.391 3.548C11.5309 3.41267 11.7179 3.33702 11.9125 3.33702C12.1071 3.33702 12.2941 3.41267 12.434 3.548L13.336 4.421C13.5823 4.65907 13.8796 4.83777 14.2054 4.94348C14.5312 5.0492 14.8769 5.07913 15.216 5.031L16.459 4.856C16.6517 4.82868 16.8475 4.87735 17.005 4.99174C17.1625 5.10613 17.2694 5.27727 17.303 5.469L17.52 6.705C17.5791 7.0423 17.7144 7.36167 17.9156 7.63877C18.1168 7.91587 18.3786 8.14339 18.681 8.304L19.79 8.892C20.147 9.082 20.29 9.521 20.112 9.884L19.561 11.012C19.4106 11.3197 19.3325 11.6576 19.3325 12C19.3325 12.3424 19.4106 12.6803 19.561 12.988L20.112 14.116C20.1975 14.2908 20.2117 14.492 20.1517 14.6771C20.0916 14.8622 19.9619 15.0167 19.79 15.108L18.681 15.696C18.3786 15.8566 18.1168 16.0841 17.9156 16.3612C17.7144 16.6383 17.5791 16.9577 17.52 17.295L17.303 18.531C17.2694 18.7227 17.1625 18.8939 17.005 19.0083C16.8475 19.1226 16.6517 19.1713 16.459 19.144L15.216 18.968C14.8768 18.92 14.5311 18.9501 14.2053 19.056C13.8795 19.1619 13.5822 19.3408 13.336 19.579L12.434 20.452C12.2941 20.5873 12.1071 20.663 11.9125 20.663C11.7179 20.663 11.5309 20.5873 11.391 20.452L10.489 19.579C10.2427 19.3409 9.94537 19.1622 9.61957 19.0565C9.29376 18.9508 8.94813 18.9209 8.609 18.969L7.367 19.144C7.17427 19.1713 6.97847 19.1226 6.82098 19.0083C6.66348 18.8939 6.55663 18.7227 6.523 18.531L6.306 17.295C6.24681 16.9576 6.11137 16.6382 5.90999 16.3611C5.70862 16.084 5.44663 15.8565 5.144 15.696L4.036 15.108C3.86394 15.0169 3.73404 14.8625 3.67376 14.6774C3.61349 14.4922 3.62756 14.2909 3.713 14.116L4.265 12.988C4.41537 12.6803 4.49353 12.3424 4.49353 12C4.49353 11.6576 4.41537 11.3197 4.265 11.012L3.713 9.884C3.62756 9.70906 3.61349 9.50776 3.67376 9.32264C3.73404 9.13752 3.86394 8.98309 4.036 8.892L5.144 8.304C5.44663 8.14351 5.70862 7.91604 5.90999 7.63893C6.11137 7.36183 6.24681 7.0424 6.306 6.705L6.523 5.469C6.55663 5.27727 6.66348 5.10613 6.82098 4.99174C6.97847 4.87735 7.17427 4.82868 7.367 4.856L8.61 5.031C8.94913 5.07913 9.29476 5.0492 9.62057 4.94348C9.94637 4.83777 10.2437 4.65907 10.49 4.421L11.391 3.548Z" fill="var(--fill-0, black)"/>
</g>
</svg>
