<svg preserveAspectRatio="none" width="100%" height="100%" overflow="visible" style="display: block;" viewBox="0 0 24 24" fill="none" xmlns="http://www.w3.org/2000/svg">
<g id="heart">
<path id="Vector" fill-rule="evenodd" clip-rule="evenodd" d="M11.8234 4.68443L12.0004 4.86343L12.1774 4.68543C13.2566 3.60627 14.7203 3 16.2464 3C17.7726 3 19.2363 3.60627 20.3154 4.68543C21.3946 5.7646 22.0009 7.22826 22.0009 8.75443C22.0009 10.2806 21.3946 11.7443 20.3154 12.8234L13.5914 19.5464C13.3825 19.7554 13.1345 19.9211 12.8615 20.0342C12.5885 20.1473 12.2959 20.2055 12.0004 20.2055C11.705 20.2055 11.4124 20.1473 11.1394 20.0342C10.8664 19.9211 10.6184 19.7554 10.4094 19.5464L3.68543 12.8234C3.15109 12.2891 2.72722 11.6547 2.43803 10.9566C2.14884 10.2584 2 9.51012 2 8.75443C2 7.99875 2.14884 7.25047 2.43803 6.55231C2.72722 5.85415 3.15109 5.21978 3.68543 4.68543C4.21978 4.15109 4.85415 3.72722 5.55231 3.43803C6.25047 3.14884 6.99875 3 7.75444 3C8.51012 3 9.2584 3.14884 9.95656 3.43803C10.6547 3.72722 11.2891 4.15009 11.8234 4.68443ZM10.7624 5.74543C9.96453 4.94766 8.88239 4.49953 7.75408 4.49963C6.62577 4.49972 5.54371 4.94803 4.74594 5.74593C3.94816 6.54384 3.50003 7.62598 3.50013 8.75429C3.50022 9.8826 3.94853 10.9647 4.74643 11.7624L11.4704 18.4864C11.6111 18.6269 11.8017 18.7058 12.0004 18.7058C12.1992 18.7058 12.3898 18.6269 12.5304 18.4864L19.2544 11.7624C20.0461 10.9634 20.4891 9.88333 20.4865 8.75851C20.4839 7.6337 20.0359 6.5557 19.2405 5.76033C18.4452 4.96496 17.3672 4.51698 16.2424 4.51437C15.1175 4.51177 14.0375 4.95476 13.2384 5.74644L12.5304 6.45443C12.3898 6.59489 12.1992 6.67378 12.0004 6.67378C11.8017 6.67378 11.6111 6.59489 11.4704 6.45443L10.7624 5.74543Z" fill="var(--fill-0, black)"/>
</g>
</svg>
