<svg preserveAspectRatio="none" width="100%" height="100%" overflow="visible" style="display: block;" viewBox="0 0 17.5 17.497" fill="none" xmlns="http://www.w3.org/2000/svg">
<path id="Vector" fill-rule="evenodd" clip-rule="evenodd" d="M9.2 1.65C9.07018 1.55263 8.91228 1.5 8.75 1.5C8.58772 1.5 8.42982 1.55263 8.3 1.65L1.8 6.525C1.70685 6.59486 1.63125 6.68545 1.57918 6.78959C1.52711 6.89373 1.5 7.00857 1.5 7.125V15.247C1.5 15.661 1.836 15.997 2.25 15.997H5.75V13.747C5.75 12.9514 6.06607 12.1883 6.62868 11.6257C7.19129 11.0631 7.95435 10.747 8.75 10.747C9.54565 10.747 10.3087 11.0631 10.8713 11.6257C11.4339 12.1883 11.75 12.9514 11.75 13.747V15.997H15.25C15.4489 15.997 15.6397 15.918 15.7803 15.7773C15.921 15.6367 16 15.4459 16 15.247V7.125C16 7.00857 15.9729 6.89373 15.9208 6.78959C15.8687 6.68545 15.7931 6.59486 15.7 6.525L9.2 1.65ZM7.4 0.45C8.2 -0.15 9.3 -0.15 10.1 0.45L16.6 5.325C17.167 5.75 17.5 6.417 17.5 7.125V15.247C17.5 15.8437 17.2629 16.416 16.841 16.838C16.419 17.2599 15.8467 17.497 15.25 17.497H11C10.8011 17.497 10.6103 17.418 10.4697 17.2773C10.329 17.1367 10.25 16.9459 10.25 16.747V13.747C10.25 13.3492 10.092 12.9676 9.81066 12.6863C9.52936 12.405 9.14782 12.247 8.75 12.247C8.35218 12.247 7.97064 12.405 7.68934 12.6863C7.40804 12.9676 7.25 13.3492 7.25 13.747V16.747C7.25 16.9459 7.17098 17.1367 7.03033 17.2773C6.88968 17.418 6.69891 17.497 6.5 17.497H2.25C1.65326 17.497 1.08097 17.2599 0.65901 16.838C0.237053 16.416 0 15.8437 0 15.247V7.125C0 6.417 0.333 5.75 0.9 5.325L7.4 0.45Z" fill="var(--fill-0, black)"/>
</svg>
