<svg preserveAspectRatio="none" width="100%" height="100%" overflow="visible" style="display: block;" viewBox="0 0 24 24" fill="none" xmlns="http://www.w3.org/2000/svg">
<g id="List">
<rect width="24" height="24" fill="white"/>
<path id="Vector 1" d="M5 19.9835V4C5 3.44772 5.44771 3 6 3H18.5C19.0523 3 19.5 3.44772 19.5 4V19.9835C19.5 20.7014 18.7659 21.1854 18.1061 20.9026L16.3939 20.1688C16.1424 20.061 15.8576 20.061 15.6061 20.1688L12.8691 21.3418C12.6322 21.4433 12.3653 21.4495 12.124 21.359L8.87597 20.141C8.63469 20.0505 8.36779 20.0567 8.13093 20.1582L6.39392 20.9026C5.73405 21.1854 5 20.7014 5 19.9835Z" stroke="var(--stroke-0, black)" stroke-width="1.5" stroke-linecap="round"/>
<path id="Vector 2" d="M8 9H16.5M8 12H12" stroke="var(--stroke-0, black)" stroke-width="1.5" stroke-linecap="round"/>
</g>
</svg>
