<svg preserveAspectRatio="none" width="100%" height="100%" overflow="visible" style="display: block;" viewBox="0 0 14.944 20.0032" fill="none" xmlns="http://www.w3.org/2000/svg">
<g id="Group">
<path id="Vector" fill-rule="evenodd" clip-rule="evenodd" d="M7.473 3.635C6.45589 3.635 5.48045 4.03904 4.76125 4.75825C4.04204 5.47745 3.638 6.4529 3.638 7.47C3.638 8.48711 4.04204 9.46255 4.76125 10.1818C5.48045 10.901 6.45589 11.305 7.473 11.305C8.49011 11.305 9.46555 10.901 10.1848 10.1818C10.904 9.46255 11.308 8.48711 11.308 7.47C11.308 6.4529 10.904 5.47745 10.1848 4.75825C9.46555 4.03904 8.49011 3.635 7.473 3.635ZM5.138 7.47C5.138 6.85072 5.38401 6.2568 5.82191 5.81891C6.2598 5.38101 6.85372 5.135 7.473 5.135C8.09228 5.135 8.6862 5.38101 9.12409 5.81891C9.56199 6.2568 9.808 6.85072 9.808 7.47C9.808 8.08928 9.56199 8.6832 9.12409 9.12109C8.6862 9.55899 8.09228 9.805 7.473 9.805C6.85372 9.805 6.2598 9.55899 5.82191 9.12109C5.38401 8.6832 5.138 8.08928 5.138 7.47Z" fill="var(--fill-0, black)"/>
<path id="Vector_2" fill-rule="evenodd" clip-rule="evenodd" d="M7.472 2.67834e-07C6.49069 -0.000262501 5.51894 0.192827 4.61228 0.568237C3.70562 0.943647 2.8818 1.49402 2.18791 2.18791C1.49402 2.8818 0.943647 3.70562 0.568237 4.61228C0.192827 5.51894 -0.000262501 6.49069 2.67834e-07 7.472C2.67834e-07 10.276 1.072 12.829 2.345 14.878C3.62 16.931 5.127 18.526 6.072 19.429C6.45208 19.7979 6.96114 20.0039 7.49081 20.0032C8.02049 20.0024 8.52896 19.795 8.908 19.425C9.848 18.521 11.347 16.925 12.614 14.874C13.88 12.825 14.944 10.274 14.944 7.472C14.9443 6.49069 14.7512 5.51894 14.3758 4.61228C14.0004 3.70562 13.45 2.8818 12.7561 2.18791C12.0622 1.49402 11.2384 0.943647 10.3317 0.568237C9.42506 0.192827 8.45331 -0.000262501 7.472 2.67834e-07ZM1.5 7.472C1.5 5.88813 2.12919 4.36913 3.24916 3.24916C4.36913 2.12919 5.88813 1.5 7.472 1.5C9.05587 1.5 10.5749 2.12919 11.6948 3.24916C12.8148 4.36913 13.444 5.88813 13.444 7.472C13.444 9.897 12.519 12.174 11.338 14.085C10.159 15.994 8.755 17.491 7.868 18.345C7.81833 18.3953 7.75916 18.4353 7.69393 18.4625C7.6287 18.4898 7.5587 18.5038 7.488 18.5038C7.4173 18.5038 7.3473 18.4898 7.28207 18.4625C7.21684 18.4353 7.15767 18.3953 7.108 18.345C6.218 17.493 4.805 15.995 3.618 14.087C2.431 12.174 1.5 9.897 1.5 7.472Z" fill="var(--fill-0, black)"/>
</g>
</svg>
