<svg preserveAspectRatio="none" width="100%" height="100%" overflow="visible" style="display: block;" viewBox="0 0 24 24" fill="none" xmlns="http://www.w3.org/2000/svg">
<g id="locked-2">
<path id="Vector" d="M10.5 16C10.5 15.6022 10.658 15.2206 10.9393 14.9393C11.2206 14.658 11.6022 14.5 12 14.5C12.3978 14.5 12.7794 14.658 13.0607 14.9393C13.342 15.2206 13.5 15.6022 13.5 16V17.5C13.5 17.8978 13.342 18.2794 13.0607 18.5607C12.7794 18.842 12.3978 19 12 19C11.6022 19 11.2206 18.842 10.9393 18.5607C10.658 18.2794 10.5 17.8978 10.5 17.5V16Z" fill="var(--fill-0, black)"/>
<path id="Vector_2" fill-rule="evenodd" clip-rule="evenodd" d="M6.75 7.25C6.75 5.85761 7.30312 4.52226 8.28769 3.53769C9.27226 2.55312 10.6076 2 12 2C13.3924 2 14.7277 2.55312 15.7123 3.53769C16.6969 4.52226 17.25 5.85761 17.25 7.25V9.125H18.5C19.0967 9.125 19.669 9.36205 20.091 9.78401C20.5129 10.206 20.75 10.7783 20.75 11.375V17.25C20.75 17.8738 20.6271 18.4915 20.3884 19.0677C20.1497 19.644 19.7998 20.1677 19.3588 20.6088C18.9177 21.0498 18.394 21.3997 17.8177 21.6384C17.2415 21.8771 16.6238 22 16 22H8C6.74022 22 5.53204 21.4996 4.64124 20.6088C3.75045 19.718 3.25 18.5098 3.25 17.25V11.375C3.25 10.7783 3.48705 10.206 3.90901 9.78401C4.33097 9.36205 4.90326 9.125 5.5 9.125H6.75V7.25ZM8.25 9.125H15.75V7.25C15.75 6.25544 15.3549 5.30161 14.6517 4.59835C13.9484 3.89509 12.9946 3.5 12 3.5C11.0054 3.5 10.0516 3.89509 9.34835 4.59835C8.64509 5.30161 8.25 6.25544 8.25 7.25V9.125ZM5.5 10.625C5.30109 10.625 5.11032 10.704 4.96967 10.8447C4.82902 10.9853 4.75 11.1761 4.75 11.375V17.25C4.75 18.112 5.09241 18.9386 5.7019 19.5481C6.3114 20.1576 7.13805 20.5 8 20.5H16C16.862 20.5 17.6886 20.1576 18.2981 19.5481C18.9076 18.9386 19.25 18.112 19.25 17.25V11.375C19.25 11.1761 19.171 10.9853 19.0303 10.8447C18.8897 10.704 18.6989 10.625 18.5 10.625H5.5Z" fill="var(--fill-0, black)"/>
</g>
</svg>
