<svg preserveAspectRatio="none" width="100%" height="100%" overflow="visible" style="display: block;" viewBox="0 0 25 24" fill="none" xmlns="http://www.w3.org/2000/svg">
<g id="Map">
<path id="Vector" d="M11.413 6.031C11.413 5.91281 11.4363 5.79578 11.4815 5.68658C11.5267 5.57739 11.593 5.47818 11.6766 5.3946C11.7602 5.31103 11.8594 5.24474 11.9686 5.19951C12.0778 5.15428 12.1948 5.131 12.313 5.131H12.323C12.5617 5.131 12.7906 5.22582 12.9594 5.3946C13.1282 5.56339 13.223 5.79231 13.223 6.031C13.223 6.26969 13.1282 6.49861 12.9594 6.6674C12.7906 6.83618 12.5617 6.931 12.323 6.931H12.313C12.1948 6.931 12.0778 6.90772 11.9686 6.86249C11.8594 6.81726 11.7602 6.75097 11.6766 6.6674C11.593 6.58382 11.5267 6.48461 11.4815 6.37542C11.4363 6.26622 11.413 6.14919 11.413 6.031Z" fill="var(--fill-0, black)"/>
<path id="Vector_2" fill-rule="evenodd" clip-rule="evenodd" d="M12.321 11.998L11.851 12.582L11.848 12.58L11.845 12.578L11.835 12.57L11.802 12.542L11.685 12.442C11.0966 11.9172 10.5592 11.338 10.08 10.712C9.216 9.58 8.281 7.928 8.281 6.032C8.281 4.96278 8.70575 3.93735 9.4618 3.1813C10.2179 2.42525 11.2433 2.0005 12.3125 2.0005C13.3817 2.0005 14.4071 2.42525 15.1632 3.1813C15.9193 3.93735 16.344 4.96278 16.344 6.032C16.344 7.926 15.414 9.578 14.555 10.711C14.0785 11.3362 13.5442 11.9151 12.959 12.44L12.842 12.54L12.809 12.569L12.799 12.577L12.796 12.579L12.795 12.58L12.321 11.998ZM12.313 3.5C11.9804 3.49961 11.651 3.56479 11.3437 3.69182C11.0363 3.81885 10.757 4.00523 10.5217 4.24031C10.2865 4.47539 10.0999 4.75455 9.97258 5.06181C9.84531 5.36908 9.77987 5.69842 9.78 6.031C9.78 7.448 10.49 8.778 11.272 9.802C11.651 10.299 12.032 10.703 12.319 10.984C12.605 10.704 12.983 10.3 13.359 9.804C14.136 8.78 14.843 7.449 14.843 6.031C14.8431 5.69867 14.7778 5.36957 14.6507 5.0625C14.5236 4.75543 14.3373 4.47641 14.1023 4.24137C13.8674 4.00634 13.5884 3.81989 13.2814 3.69268C12.9744 3.56547 12.6453 3.5 12.313 3.5Z" fill="var(--fill-0, black)"/>
<path id="Vector_3" d="M12.321 11.998L12.794 12.581C12.6605 12.6891 12.4938 12.7481 12.322 12.7481C12.1502 12.7481 11.9835 12.6891 11.85 12.581L12.321 11.998Z" fill="var(--fill-0, black)"/>
<path id="Vector_4" d="M8.887 11.621C9.257 12.105 9.624 12.517 9.939 12.844V18.548L14.693 17.407V12.85C15.2448 12.2758 15.7466 11.6555 16.193 10.996V17.412L19.883 18.316C19.9935 18.3432 20.1087 18.3448 20.2199 18.3209C20.3312 18.2969 20.4355 18.2479 20.525 18.1777C20.6145 18.1075 20.6869 18.0178 20.7366 17.9154C20.7863 17.8131 20.8121 17.7008 20.812 17.587V7.177C20.8123 7.00881 20.7561 6.84538 20.6524 6.71299C20.5486 6.5806 20.4034 6.48692 20.24 6.447L17.841 5.86C17.8251 5.30976 17.7267 4.76502 17.549 4.244L20.597 4.991C21.0861 5.11074 21.521 5.39112 21.8319 5.78727C22.1428 6.18341 22.3119 6.67241 22.312 7.176V17.588C22.3119 17.929 22.2344 18.2654 22.0852 18.572C21.936 18.8786 21.7191 19.1473 21.4508 19.3577C21.1826 19.5682 20.87 19.7149 20.5367 19.7869C20.2034 19.8588 19.8582 19.8541 19.527 19.773L15.612 18.814C15.4957 18.7858 15.3743 18.7858 15.258 18.814L9.716 20.144C9.36747 20.2274 9.00405 20.2264 8.656 20.141L4.027 19.008C3.53768 18.8882 3.10272 18.6077 2.79177 18.2113C2.48082 17.815 2.31188 17.3258 2.312 16.822V6.411C2.31188 6.06985 2.38934 5.73314 2.53852 5.42634C2.6877 5.11954 2.90469 4.85067 3.17308 4.64008C3.44147 4.42949 3.75424 4.28269 4.08772 4.21078C4.4212 4.13887 4.76667 4.14373 5.098 4.225L6.948 4.678C6.82364 5.16929 6.76778 5.67541 6.782 6.182L4.741 5.682C4.63058 5.65502 4.51546 5.6535 4.40436 5.67754C4.29326 5.70158 4.18908 5.75057 4.09969 5.82079C4.0103 5.89101 3.93804 5.98063 3.88838 6.08288C3.83871 6.18513 3.81293 6.29733 3.813 6.411V16.822C3.81285 16.9899 3.86903 17.153 3.97256 17.2851C4.07608 17.4173 4.22096 17.5109 4.384 17.551L8.439 18.544V10.996C8.591 11.2213 8.74033 11.4297 8.887 11.621Z" fill="var(--fill-0, black)"/>
</g>
</svg>
