<svg preserveAspectRatio="none" width="100%" height="100%" overflow="visible" style="display: block;" viewBox="0 0 18.5004 18.5004" fill="none" xmlns="http://www.w3.org/2000/svg">
<g id="Group 18">
<g id="Union">
<mask id="path-1-inside-1_0_4" fill="white">
<path d="M6.46191 0C10.0304 0.000203061 12.9229 2.89343 12.9229 6.46191C12.9228 6.58584 12.918 6.70886 12.9111 6.83105C13.588 7.59198 14 8.59385 14 9.69238C14 12.0714 12.0714 14 9.69238 14C8.59385 14 7.59198 13.588 6.83105 12.9111C6.70886 12.918 6.58584 12.9228 6.46191 12.9229C2.89343 12.9229 0.000203064 10.0304 0 6.46191C0 2.8933 2.8933 0 6.46191 0Z"/>
</mask>
<path d="M6.46191 0L6.462 -1.5H6.46191V0ZM12.9229 6.46191L14.4229 6.462V6.46191H12.9229ZM12.9111 6.83105L11.4135 6.7466C11.3912 7.14273 11.5267 7.53157 11.7904 7.82802L12.9111 6.83105ZM14 9.69238L15.5 9.69241V9.69238H14ZM9.69238 14V15.5H9.69241L9.69238 14ZM6.83105 12.9111L7.82802 11.7904C7.53157 11.5267 7.14273 11.3912 6.7466 11.4135L6.83105 12.9111ZM6.46191 12.9229V14.4229H6.462L6.46191 12.9229ZM0 6.46191H-1.5V6.462L0 6.46191ZM6.46191 0L6.46183 1.5C9.20169 1.50016 11.4229 3.72165 11.4229 6.46191H12.9229H14.4229C14.4229 2.06521 10.859 -1.49975 6.462 -1.5L6.46191 0ZM12.9229 6.46191L11.4229 6.46183C11.4228 6.54785 11.4195 6.64068 11.4135 6.7466L12.9111 6.83105L14.4088 6.91551C14.4166 6.77703 14.4228 6.62383 14.4229 6.462L12.9229 6.46191ZM12.9111 6.83105L11.7904 7.82802C12.2331 8.32568 12.5 8.97635 12.5 9.69238H14H15.5C15.5 8.21135 14.9429 6.85828 14.0319 5.83409L12.9111 6.83105ZM14 9.69238L12.5 9.69236C12.5 11.243 11.243 12.5 9.69236 12.5L9.69238 14L9.69241 15.5C12.8998 15.4999 15.4999 12.8998 15.5 9.69241L14 9.69238ZM9.69238 14V12.5C8.97635 12.5 8.32568 12.2331 7.82802 11.7904L6.83105 12.9111L5.83409 14.0319C6.85828 14.9429 8.21135 15.5 9.69238 15.5V14ZM6.83105 12.9111L6.7466 11.4135C6.64068 11.4195 6.54785 11.4228 6.46183 11.4229L6.46191 12.9229L6.462 14.4229C6.62383 14.4228 6.77703 14.4166 6.91551 14.4088L6.83105 12.9111ZM6.46191 12.9229V11.4229C3.72165 11.4229 1.50016 9.20169 1.5 6.46183L0 6.46191L-1.5 6.462C-1.49975 10.859 2.06521 14.4229 6.46191 14.4229V12.9229ZM0 6.46191H1.5C1.5 3.72173 3.72173 1.5 6.46191 1.5V0V-1.5C2.06488 -1.5 -1.5 2.06488 -1.5 6.46191H0Z" fill="var(--stroke-0, black)" mask="url(#path-1-inside-1_0_4)"/>
</g>
<g id="Union_2">
<mask id="path-3-outside-2_0_4" maskUnits="userSpaceOnUse" x="10" y="10" width="9" height="9" fill="black">
<rect fill="white" x="10" y="10" width="9" height="9"/>
<path d="M15.3467 13.9766C15.725 13.5984 16.3385 13.5983 16.7168 13.9766C17.0949 14.3549 17.095 14.9684 16.7168 15.3467C16.3648 15.6987 15.809 15.723 15.4287 15.4199L15.4199 15.4297C15.7225 15.81 15.6985 16.365 15.3467 16.7168C14.9684 17.0949 14.3548 17.0949 13.9766 16.7168C13.6219 16.3621 13.5998 15.8004 13.9102 15.4199L13.9766 15.3467L12 13.3701L13.3701 12L15.3467 13.9766Z"/>
</mask>
<path d="M15.3467 13.9766L14.286 15.0372C14.8717 15.6229 15.8214 15.623 16.4072 15.0374L15.3467 13.9766ZM16.7168 13.9766L17.7777 12.9161L17.7775 12.9159L16.7168 13.9766ZM16.7168 15.3467L17.7775 16.4073L17.7776 16.4072L16.7168 15.3467ZM15.4287 15.4199L16.3635 14.2468C15.743 13.7523 14.8446 13.8267 14.3138 14.4165L15.4287 15.4199ZM15.4199 15.4297L14.305 14.4262C13.8148 14.9709 13.7899 15.7901 14.2461 16.3636L15.4199 15.4297ZM15.3467 16.7168L16.4071 17.7777L16.4073 17.7775L15.3467 16.7168ZM13.9766 16.7168L12.9159 17.7775L12.9161 17.7777L13.9766 16.7168ZM13.9102 15.4199L12.7989 14.4124C12.7814 14.4317 12.7643 14.4515 12.7478 14.4718L13.9102 15.4199ZM13.9766 15.3467L15.0878 16.3542C15.6251 15.7616 15.6029 14.8516 15.0372 14.286L13.9766 15.3467ZM12 13.3701L10.9393 12.3095C10.3536 12.8952 10.3536 13.845 10.9393 14.4308L12 13.3701ZM13.3701 12L14.4308 10.9393C13.845 10.3536 12.8952 10.3536 12.3095 10.9393L13.3701 12ZM15.3467 13.9766L16.4072 15.0374C16.1999 15.2446 15.8638 15.2449 15.6561 15.0372L16.7168 13.9766L17.7775 12.9159C16.8132 11.9517 15.2501 11.9521 14.2862 12.9157L15.3467 13.9766ZM16.7168 13.9766L15.6559 15.037C15.4486 14.8296 15.4485 14.4937 15.656 14.2862L16.7168 15.3467L17.7776 16.4072C18.7414 15.4431 18.7413 13.8801 17.7777 12.9161L16.7168 13.9766ZM16.7168 15.3467L15.6561 14.286C15.8503 14.0919 16.1541 14.08 16.3635 14.2468L15.4287 15.4199L14.4939 16.593C15.4639 17.366 16.8793 17.3055 17.7775 16.4073L16.7168 15.3467ZM15.4287 15.4199L14.3138 14.4165L14.305 14.4262L15.4199 15.4297L16.5349 16.4331L16.5437 16.4234L15.4287 15.4199ZM15.4199 15.4297L14.2461 16.3636C14.0804 16.1553 14.091 15.8511 14.286 15.6561L15.3467 16.7168L16.4073 17.7775C17.306 16.8788 17.3646 15.4647 16.5937 14.4958L15.4199 15.4297ZM15.3467 16.7168L14.2863 15.6559C14.4937 15.4486 14.8295 15.4485 15.037 15.6559L13.9766 16.7168L12.9161 17.7777C13.8802 18.7413 15.4431 18.7412 16.4071 17.7777L15.3467 16.7168ZM13.9766 16.7168L15.0372 15.6561C15.2325 15.8514 15.2436 16.1583 15.0725 16.3681L13.9102 15.4199L12.7478 14.4718C11.9559 15.4425 12.0112 16.8728 12.9159 17.7775L13.9766 16.7168ZM13.9102 15.4199L15.0214 16.4275L15.0878 16.3542L13.9766 15.3467L12.8653 14.3391L12.7989 14.4124L13.9102 15.4199ZM13.9766 15.3467L15.0372 14.286L13.0607 12.3095L12 13.3701L10.9393 14.4308L12.9159 16.4073L13.9766 15.3467ZM12 13.3701L13.0607 14.4308L14.4308 13.0607L13.3701 12L12.3095 10.9393L10.9393 12.3095L12 13.3701ZM13.3701 12L12.3095 13.0607L14.286 15.0372L15.3467 13.9766L16.4073 12.9159L14.4308 10.9393L13.3701 12Z" fill="var(--stroke-0, black)" mask="url(#path-3-outside-2_0_4)"/>
</g>
</g>
</svg>
