<svg preserveAspectRatio="none" width="100%" height="100%" overflow="visible" style="display: block;" viewBox="0 0 24 24" fill="none" xmlns="http://www.w3.org/2000/svg">
<g id="Notification">
<path id="Vector" d="M12.002 2.001C12.2009 2.001 12.3917 2.08002 12.5323 2.22067C12.673 2.36132 12.752 2.55209 12.752 2.751V3.538C14.6021 3.72394 16.3171 4.59047 17.5643 5.96947C18.8116 7.34848 19.5021 9.14162 19.502 11.001V14.115L20.194 15.961C20.3215 16.3014 20.3645 16.6676 20.3196 17.0282C20.2747 17.3889 20.143 17.7333 19.9359 18.032C19.7288 18.3307 19.4525 18.5748 19.1305 18.7433C18.8085 18.9119 18.4505 19 18.087 19H15.063C15.063 19.8124 14.7403 20.5914 14.1659 21.1659C13.5914 21.7403 12.8124 22.063 12 22.063C11.1876 22.063 10.4086 21.7403 9.83413 21.1659C9.25971 20.5914 8.937 19.8124 8.937 19H5.917C5.55334 19.0002 5.19505 18.9123 4.87281 18.7437C4.55058 18.5751 4.27401 18.331 4.06678 18.0321C3.85956 17.7333 3.72786 17.3887 3.68296 17.0278C3.63807 16.6669 3.68131 16.3005 3.809 15.96L4.502 14.114V11C4.50185 9.14062 5.1924 7.34748 6.43965 5.96847C7.68691 4.58947 9.40194 3.72294 11.252 3.537V2.75C11.252 2.55109 11.331 2.36032 11.4717 2.21967C11.6123 2.07902 11.8031 2.001 12.002 2.001ZM10.437 19C10.4473 19.4076 10.6165 19.795 10.9084 20.0796C11.2003 20.3642 11.5918 20.5235 11.9995 20.5235C12.4072 20.5235 12.7987 20.3642 13.0906 20.0796C13.3825 19.795 13.5517 19.4076 13.562 19H10.437ZM6.002 11V14.116C6.002 14.294 5.969 14.472 5.907 14.639L5.214 16.487C5.17153 16.6004 5.15716 16.7225 5.17212 16.8427C5.18709 16.9629 5.23094 17.0776 5.29993 17.1772C5.36892 17.2767 5.461 17.3581 5.56828 17.4143C5.67557 17.4705 5.79488 17.4999 5.916 17.5H18.087C18.2081 17.4999 18.3274 17.4705 18.4347 17.4143C18.542 17.3581 18.6341 17.2767 18.7031 17.1772C18.7721 17.0776 18.8159 16.9629 18.8309 16.8427C18.8458 16.7225 18.8315 16.6004 18.789 16.487L18.096 14.639C18.0338 14.4717 18.002 14.2945 18.002 14.116V11C18.002 10.2121 17.8468 9.43185 17.5453 8.7039C17.2437 7.97595 16.8018 7.31451 16.2446 6.75736C15.6875 6.20021 15.0261 5.75825 14.2981 5.45672C13.5701 5.15519 12.7899 5 12.002 5C11.2141 5 10.4339 5.15519 9.7059 5.45672C8.97795 5.75825 8.31651 6.20021 7.75936 6.75736C7.20221 7.31451 6.76025 7.97595 6.45872 8.7039C6.15719 9.43185 6.002 10.2121 6.002 11Z" fill="var(--fill-0, black)"/>
</g>
</svg>
