<svg preserveAspectRatio="none" width="100%" height="100%" overflow="visible" style="display: block;" viewBox="0 0 24 24" fill="none" xmlns="http://www.w3.org/2000/svg">
<g id="question-mark-circle">
<path id="Vector" d="M10.92 10.438C10.9201 10.2524 10.968 10.0698 11.0591 9.90811C11.1502 9.74637 11.2815 9.61086 11.4403 9.51464C11.5991 9.41843 11.78 9.36477 11.9655 9.35884C12.1511 9.35292 12.335 9.39492 12.4996 9.4808C12.6642 9.56668 12.8039 9.69354 12.9051 9.84914C13.0064 10.0047 13.0659 10.1838 13.0778 10.3691C13.0897 10.5543 13.0536 10.7395 12.9731 10.9068C12.8925 11.0741 12.7703 11.2178 12.618 11.324C12.348 11.514 12.02 11.766 11.758 12.084C11.491 12.406 11.25 12.843 11.25 13.384C11.25 13.5829 11.329 13.7737 11.4697 13.9143C11.6103 14.055 11.8011 14.134 12 14.134C12.1989 14.134 12.3897 14.055 12.5303 13.9143C12.671 13.7737 12.75 13.5829 12.75 13.384C12.75 13.309 12.78 13.2 12.912 13.041C13.0795 12.855 13.2697 12.6907 13.478 12.552C13.8415 12.298 14.1334 11.9545 14.3254 11.5548C14.5175 11.1551 14.6033 10.7126 14.5746 10.2701C14.5458 9.82753 14.4035 9.39988 14.1613 9.02837C13.9191 8.65687 13.5853 8.35407 13.192 8.14918C12.7987 7.94429 12.3592 7.84424 11.916 7.85868C11.4728 7.87312 11.0407 8.00156 10.6616 8.23162C10.2825 8.46167 9.96904 8.78556 9.75156 9.17204C9.53407 9.55852 9.41988 9.99453 9.42 10.438C9.42 10.6369 9.49902 10.8277 9.63967 10.9683C9.78032 11.109 9.97109 11.188 10.17 11.188C10.3689 11.188 10.5597 11.109 10.7003 10.9683C10.841 10.8277 10.92 10.6369 10.92 10.438ZM12 14.642C11.8011 14.642 11.6103 14.721 11.4697 14.8617C11.329 15.0023 11.25 15.1931 11.25 15.392C11.25 15.5909 11.329 15.7817 11.4697 15.9223C11.6103 16.063 11.8011 16.142 12 16.142C12.1989 16.142 12.3897 16.063 12.5303 15.9223C12.671 15.7817 12.75 15.5909 12.75 15.392C12.75 15.1931 12.671 15.0023 12.5303 14.8617C12.3897 14.721 12.1989 14.642 12 14.642Z" fill="var(--fill-0, black)"/>
<path id="Vector_2" fill-rule="evenodd" clip-rule="evenodd" d="M12 2C6.477 2 2 6.477 2 12C2 17.523 6.477 22 12 22C17.523 22 22 17.523 22 12C22 6.477 17.523 2 12 2ZM3.5 12C3.5 9.74566 4.39553 7.58365 5.98959 5.98959C7.58365 4.39553 9.74566 3.5 12 3.5C14.2543 3.5 16.4163 4.39553 18.0104 5.98959C19.6045 7.58365 20.5 9.74566 20.5 12C20.5 14.2543 19.6045 16.4163 18.0104 18.0104C16.4163 19.6045 14.2543 20.5 12 20.5C9.74566 20.5 7.58365 19.6045 5.98959 18.0104C4.39553 16.4163 3.5 14.2543 3.5 12Z" fill="var(--fill-0, black)"/>
</g>
</svg>
