<svg preserveAspectRatio="none" width="100%" height="100%" overflow="visible" style="display: block;" viewBox="0 0 17 20.75" fill="none" xmlns="http://www.w3.org/2000/svg">
<g id="Group 19">
<path id="Rectangle 14" d="M15.0596 5.5L14.998 6.30762L14.1396 17.4609C14.0294 18.8937 12.8344 20 11.3975 20H6.10254C4.66558 20 3.47058 18.8937 3.36035 17.4609L2.50195 6.30762L2.44043 5.5H15.0596Z" stroke="var(--stroke-0, black)" stroke-width="1.5"/>
<path id="Vector 4" d="M13.25 1.5C13.6642 1.5 14 1.16421 14 0.75C14 0.335786 13.6642 0 13.25 0V0.75V1.5ZM8.25 4.75L8.95225 5.01334L10.2089 1.66222L9.50667 1.39888L8.80442 1.13553L7.54775 4.48666L8.25 4.75ZM10.443 0.75V1.5H13.25V0.75V0H10.443V0.75ZM9.50667 1.39888L10.2089 1.66222C10.2455 1.56464 10.3388 1.5 10.443 1.5V0.75V0C9.71352 0 9.06056 0.452502 8.80442 1.13553L9.50667 1.39888Z" fill="var(--stroke-0, black)"/>
<path id="Vector 5" d="M0.75 5.25H16.25" stroke="var(--stroke-0, black)" stroke-width="1.5" stroke-linecap="round" stroke-linejoin="round"/>
</g>
</svg>
