<svg preserveAspectRatio="none" width="100%" height="100%" overflow="visible" style="display: block;" viewBox="0 0 24 24" fill="none" xmlns="http://www.w3.org/2000/svg">
<g id="trash">
<path id="Vector" d="M14.722 12.759C14.7287 12.5622 14.6578 12.3706 14.5244 12.2257C14.3911 12.0807 14.2061 11.994 14.0094 11.9843C13.8127 11.9746 13.6201 12.0426 13.4732 12.1737C13.3262 12.3048 13.2367 12.4885 13.224 12.685L13 17.24C12.9933 17.4368 13.0642 17.6284 13.1976 17.7733C13.3309 17.9183 13.5159 18.005 13.7126 18.0147C13.9093 18.0244 14.1019 17.9564 14.2488 17.8253C14.3958 17.6942 14.4853 17.5105 14.498 17.314L14.722 12.759ZM9.988 11.973C9.78954 11.9828 9.6031 12.071 9.46961 12.2182C9.33612 12.3654 9.26648 12.5595 9.276 12.758L9.5 17.315C9.5034 17.4144 9.52653 17.5121 9.56804 17.6025C9.60956 17.6929 9.66864 17.7741 9.74183 17.8414C9.81503 17.9087 9.90089 17.9608 9.99441 17.9947C10.0879 18.0285 10.1872 18.0434 10.2866 18.0385C10.3859 18.0336 10.4833 18.009 10.573 17.9661C10.6627 17.9232 10.743 17.8629 10.8092 17.7887C10.8754 17.7145 10.9262 17.6278 10.9586 17.5338C10.991 17.4398 11.0044 17.3402 10.998 17.241L10.774 12.685C10.7642 12.4864 10.6758 12.2998 10.5284 12.1662C10.381 12.0327 10.1866 11.9632 9.988 11.973Z" fill="var(--fill-0, black)"/>
<path id="Vector_2" d="M10.249 2C9.65226 2 9.07997 2.23705 8.65801 2.65901C8.23605 3.08097 7.999 3.65326 7.999 4.25V5H5.5C4.95395 4.99917 4.42623 5.19694 4.01522 5.55646C3.60421 5.91597 3.33797 6.41268 3.26613 6.95398C3.19429 7.49529 3.32176 8.04425 3.62476 8.49852C3.92777 8.95279 4.38563 9.28137 4.913 9.423L5.541 19.885C5.5754 20.4573 5.82701 20.995 6.24444 21.388C6.66187 21.7811 7.21362 22 7.787 22H16.211C16.7844 22 17.3361 21.7811 17.7536 21.388C18.171 20.995 18.4226 20.4573 18.457 19.885L19.085 9.423C19.6124 9.28137 20.0702 8.95279 20.3732 8.49852C20.6762 8.04425 20.8037 7.49529 20.7319 6.95398C20.66 6.41268 20.3938 5.91597 19.9828 5.55646C19.5718 5.19694 19.0441 4.99917 18.498 5H15.999V4.25C15.999 3.65326 15.7619 3.08097 15.34 2.65901C14.918 2.23705 14.3457 2 13.749 2H10.249ZM14.499 5H9.499V4.25C9.499 4.05109 9.57802 3.86032 9.71867 3.71967C9.85932 3.57902 10.0501 3.5 10.249 3.5H13.749C13.9479 3.5 14.1387 3.57902 14.2793 3.71967C14.42 3.86032 14.499 4.05109 14.499 4.25V5ZM5.5 6.5H18.498C18.6969 6.5 18.8877 6.57902 19.0283 6.71967C19.169 6.86032 19.248 7.05109 19.248 7.25C19.248 7.44891 19.169 7.63968 19.0283 7.78033C18.8877 7.92098 18.6969 8 18.498 8H5.5C5.30109 8 5.11032 7.92098 4.96967 7.78033C4.82902 7.63968 4.75 7.44891 4.75 7.25C4.75 7.05109 4.82902 6.86032 4.96967 6.71967C5.11032 6.57902 5.30109 6.5 5.5 6.5ZM6.42 9.5H17.578L16.96 19.795C16.9485 19.9858 16.8646 20.1651 16.7254 20.2961C16.5862 20.4272 16.4022 20.5001 16.211 20.5H7.787C7.59582 20.5001 7.41182 20.4272 7.2726 20.2961C7.13339 20.1651 7.04947 19.9858 7.038 19.795L6.42 9.5Z" fill="var(--fill-0, black)"/>
</g>
</svg>
