<svg preserveAspectRatio="none" width="100%" height="100%" overflow="visible" style="display: block;" viewBox="0 0 25 24" fill="none" xmlns="http://www.w3.org/2000/svg">
<g id="user">
<path id="Vector" fill-rule="evenodd" clip-rule="evenodd" d="M16.434 6.35C16.434 8.74 14.494 10.69 12.094 10.69L12.084 10.68C9.694 10.68 7.744 8.73 7.744 6.34C7.744 3.95 9.704 2 12.094 2C14.484 2 16.434 3.96 16.434 6.35ZM14.934 6.34C14.934 4.78 13.664 3.5 12.094 3.5C10.534 3.5 9.254 4.78 9.254 6.34C9.254 7.9 10.534 9.18 12.094 9.18C12.8464 9.17736 13.5672 8.87731 14.0993 8.34527C14.6313 7.81324 14.9314 7.0924 14.934 6.34Z" fill="var(--fill-0, black)"/>
<path id="Vector_2" d="M12.024 12.19C14.694 12.19 16.784 12.94 18.234 14.42V14.41C20.28 16.496 20.274 19.256 20.274 19.434V19.439C20.264 19.849 19.934 20.179 19.524 20.179H19.514C19.3155 20.1751 19.1265 20.0931 18.988 19.9508C18.8495 19.8086 18.7726 19.6175 18.774 19.419C18.774 19.369 18.774 17.089 17.154 15.449C15.994 14.279 14.264 13.679 12.024 13.679C9.784 13.679 8.054 14.279 6.894 15.449C5.274 17.099 5.274 19.399 5.274 19.419C5.274 19.829 4.944 20.179 4.534 20.179C4.174 20.199 3.774 19.859 3.774 19.449V19.445C3.773 19.277 3.766 16.506 5.814 14.419C7.264 12.939 9.354 12.19 12.024 12.19Z" fill="var(--fill-0, black)"/>
</g>
</svg>
