<svg preserveAspectRatio="none" width="100%" height="100%" overflow="visible" style="display: block;" viewBox="0 0 25.8858 25.463" fill="none" xmlns="http://www.w3.org/2000/svg">
<g id="Group 20">
<path id="Rectangle 15" d="M16.2509 8.87056C17.9643 10.5208 17.7139 13.3327 15.7356 14.6542L6.12611 21.0728C5.68154 21.3696 5.0961 21.3443 4.6787 21.0104C4.19357 20.6223 4.07475 19.9327 4.40253 19.405L10.4995 9.58894C11.751 7.57385 14.5422 7.22516 16.2509 8.87056Z" stroke="var(--stroke-0, black)" stroke-width="1.5"/>
<path id="Vector" d="M16.3018 1.625C16.5923 1.26537 17.0855 1.26502 17.3761 1.625C18.0023 2.40116 18.5876 3.42758 18.588 4.49902C18.588 4.50716 18.5887 4.51535 18.589 4.52344C18.5854 5.65362 18.3292 6.63976 17.9522 7.31836C17.5586 8.02688 17.1345 8.25 16.8409 8.25C16.5468 8.24994 16.1225 8.02647 15.7286 7.31836C15.3487 6.63537 15.0899 5.64051 15.0899 4.5C15.0899 3.42738 15.6757 2.40097 16.3018 1.625Z" stroke="var(--stroke-0, black)" stroke-width="1.5" stroke-linejoin="round"/>
<path id="Vector_2" d="M23.7008 9.45863C24.0211 9.8353 23.8856 10.3424 23.4195 10.5085C22.5237 10.8278 21.4235 11.0358 20.3966 10.7611C20.3882 10.7589 20.3793 10.7572 20.3709 10.7552C19.2317 10.4465 18.2981 9.94669 17.7038 9.41981C17.0681 8.8562 16.989 8.43579 17.0414 8.23941C17.0941 8.04263 17.3733 7.71719 18.2057 7.54644C18.9891 7.38582 20.0575 7.41984 21.2083 7.72819C22.2361 8.00369 23.0849 8.73437 23.7008 9.45863ZM19.6105 11.0236C19.5652 11.0814 19.5279 11.1467 19.5006 11.2186C19.5097 11.1947 19.5192 11.1712 19.5304 11.1488L19.6105 11.0236Z" stroke="var(--stroke-0, black)" stroke-width="1.5" stroke-linejoin="round"/>
</g>
</svg>
